<svg width="24" height="24" viewBox="0 0 24 24" fill="none" xmlns="http://www.w3.org/2000/svg">
<g clip-path="url(#clip0)">
<path fill-rule="evenodd" clip-rule="evenodd" d="M2.39958 17.7997H10.7996V10.6975L6.59958 7.47604L2.39958 10.6975V17.8V17.7997ZM11.9995 19.9332H1.19992C0.537394 19.9332 0 19.4552 0 18.8665V10.2086C0 9.89949 0.151117 9.60407 0.416235 9.40137L5.81615 5.25978C6.03418 5.09264 6.31212 5.00073 6.59958 5.00073C6.88704 5.00073 7.16498 5.09264 7.383 5.25978L12.7834 9.40137C13.0486 9.60407 13.1997 9.89949 13.1997 10.2086V18.8665C13.1997 19.4552 12.662 19.9332 11.9998 19.9332H11.9995ZM20.4692 17.8016C20.4294 17.8016 20.3897 17.8007 20.3489 17.7985C18.7385 17.7377 17.3106 16.878 16.9121 16.1164C16.8457 15.9893 16.808 15.8518 16.8012 15.7117C16.7945 15.5717 16.8187 15.4318 16.8727 15.3001C16.9266 15.1684 17.0091 15.0475 17.1155 14.9443C17.222 14.8412 17.3501 14.7577 17.4927 14.6989C17.7697 14.5844 18.0851 14.5681 18.375 14.6533C18.665 14.7385 18.9078 14.9188 19.0543 15.1577C19.1898 15.2942 19.7346 15.6407 20.4509 15.6674C20.6585 15.6674 20.9658 15.5459 21.2012 15.3368C21.4613 15.1064 21.6103 14.8216 21.5994 14.5751C21.5766 14.0834 20.9743 13.7348 19.3759 13.2889C17.8493 12.8644 16.791 11.641 16.7995 10.3141C16.8114 8.56051 18.4265 7.13355 20.3995 7.13355C22.0687 7.13355 23.4102 7.96659 23.8733 8.78994C23.9438 8.9153 23.9858 9.05183 23.997 9.19171C24.0082 9.33159 23.9883 9.47206 23.9384 9.60506C23.8886 9.73806 23.8098 9.86097 23.7066 9.96674C23.6034 10.0725 23.4778 10.1591 23.337 10.2214C23.0525 10.3484 22.7232 10.3695 22.4213 10.2801C22.1194 10.1907 21.8696 9.9981 21.7267 9.74457C21.6569 9.64522 21.1567 9.26678 20.3995 9.26678C19.742 9.26678 19.203 9.7422 19.1993 10.3269C19.1969 10.7716 19.6471 11.129 20.0933 11.2538C21.4242 11.6252 23.9009 12.3151 23.9969 14.4909C24.0353 15.3346 23.6334 16.1932 22.8966 16.847C22.2079 17.4572 21.3293 17.8016 20.4689 17.8016H20.4692Z" fill="white"/>
<path fill-rule="evenodd" clip-rule="evenodd" d="M20.3998 9.2667C19.7372 9.2667 19.1998 8.78892 19.1998 8.19997V6.06673C19.1998 5.47802 19.7372 5 20.3998 5C21.062 5 21.5997 5.47802 21.5997 6.06673V8.20021C21.5997 8.78868 21.062 9.2667 20.3998 9.2667ZM20.3998 19.9326C19.7372 19.9326 19.1998 19.4549 19.1998 18.8659V16.7329C19.1998 16.144 19.7372 15.6662 20.3998 15.6662C21.062 15.6662 21.5997 16.144 21.5997 16.7329V18.8661C21.5997 19.4549 21.062 19.9329 20.3998 19.9329" fill="white"/>
</g>
<defs>
<clipPath id="clip0">
<rect width="24" height="24" fill="white"/>
</clipPath>
</defs>
</svg>
