<svg width="24" height="24" viewBox="0 0 24 24" fill="none" xmlns="http://www.w3.org/2000/svg">
<g clip-path="url(#clip0)">
<path fill-rule="evenodd" clip-rule="evenodd" d="M20.207 15.9866H7.37474C7.23635 15.9866 7.09931 15.9591 6.97144 15.9056C6.84357 15.852 6.72739 15.7735 6.62954 15.6745C6.53168 15.5755 6.45407 15.458 6.40115 15.3287C6.34822 15.1993 6.32102 15.0607 6.32109 14.9207C6.32102 14.7807 6.34822 14.642 6.40115 14.5127C6.45407 14.3833 6.53168 14.2658 6.62954 14.1668C6.72739 14.0678 6.84357 13.9893 6.97144 13.9358C7.09931 13.8822 7.23635 13.8547 7.37474 13.8548H20.207L21.8979 6.36702L5.26828 6.39487C5.12991 6.3949 4.9929 6.36736 4.86506 6.3138C4.73723 6.26024 4.62108 6.18173 4.52325 6.08274C4.42543 5.98375 4.34784 5.86623 4.29493 5.73689C4.24203 5.60756 4.21483 5.46894 4.2149 5.32897C4.21483 5.18897 4.24204 5.05033 4.29496 4.92098C4.34789 4.79162 4.42549 4.67409 4.52335 4.5751C4.6212 4.4761 4.73739 4.39759 4.86525 4.34405C4.99312 4.29051 5.13017 4.26299 5.26855 4.26307H21.8926C22.2045 4.26249 22.5127 4.33224 22.7946 4.46724C23.0766 4.60224 23.3252 4.7991 23.5225 5.04351C23.7205 5.28735 23.8623 5.57271 23.9377 5.87887C24.0131 6.18504 24.0202 6.50435 23.9585 6.81363L22.2676 14.3017C22.0769 15.2663 21.2078 15.9863 20.207 15.9863" fill="white"/>
<path fill-rule="evenodd" clip-rule="evenodd" d="M17.9098 20.2496H8.42836C7.30743 20.2496 6.38778 19.3597 6.32468 18.2407L3.1818 2.34048C3.16744 2.27188 3.16036 2.20192 3.16067 2.1318H1.05337C0.915007 2.13184 0.777992 2.10429 0.650156 2.05074C0.522321 1.99718 0.406171 1.91866 0.308346 1.81967C0.21052 1.72068 0.132937 1.60316 0.0800291 1.47383C0.0271215 1.34449 -7.2912e-05 1.20587 1.46874e-07 1.0659C-7.29388e-05 0.925904 0.0271306 0.787266 0.0800556 0.657911C0.132981 0.528557 0.210589 0.411023 0.308444 0.312031C0.406299 0.213038 0.522481 0.134527 0.650349 0.0809865C0.778217 0.0274461 0.915262 -7.3787e-05 1.05365 1.48582e-07H3.16067C4.2816 1.48582e-07 5.20125 0.890126 5.26436 2.00918L8.40696 17.9091C8.42169 17.9775 8.42808 18.0489 8.42808 18.1181H17.9095C18.0479 18.118 18.185 18.1455 18.3128 18.1991C18.4407 18.2526 18.5569 18.3311 18.6547 18.4301C18.7526 18.5291 18.8302 18.6466 18.8831 18.776C18.9361 18.9053 18.9633 19.044 18.9632 19.184C18.9632 19.3239 18.936 19.4626 18.8831 19.5919C18.8301 19.7212 18.7525 19.8387 18.6546 19.9377C18.5568 20.0366 18.4406 20.1151 18.3128 20.1686C18.1849 20.2222 18.0479 20.2497 17.9095 20.2496H17.9098ZM9.48201 22.3811C9.48208 22.5211 9.45488 22.6597 9.40196 22.7891C9.34903 22.9185 9.27142 23.036 9.17357 23.135C9.07571 23.234 8.95953 23.3125 8.83166 23.366C8.7038 23.4196 8.56675 23.4471 8.42836 23.447C8.28997 23.4471 8.15293 23.4196 8.02506 23.366C7.89719 23.3125 7.78101 23.234 7.68316 23.135C7.5853 23.036 7.50769 22.9185 7.45477 22.7891C7.40184 22.6597 7.37464 22.5211 7.37471 22.3811C7.37464 22.2411 7.40184 22.1025 7.45477 21.9731C7.50769 21.8438 7.5853 21.7262 7.68316 21.6272C7.78101 21.5282 7.89719 21.4497 8.02506 21.3962C8.15293 21.3427 8.28997 21.3151 8.42836 21.3152C8.56675 21.3151 8.7038 21.3427 8.83166 21.3962C8.95953 21.4497 9.07571 21.5282 9.17357 21.6272C9.27142 21.7262 9.34903 21.8438 9.40196 21.9731C9.45488 22.1025 9.48208 22.2411 9.48201 22.3811" fill="white"/>
<path fill-rule="evenodd" clip-rule="evenodd" d="M8.42834 21.8482C8.28869 21.8484 8.15481 21.9047 8.05606 22.0046C7.95731 22.1045 7.90174 22.2399 7.90152 22.3812C7.90152 22.6742 8.13782 22.9138 8.42834 22.9138C8.56795 22.9136 8.70178 22.8574 8.80052 22.7576C8.89926 22.6577 8.95487 22.5224 8.95517 22.3812C8.95494 22.2399 8.89937 22.1045 8.80062 22.0046C8.70187 21.9047 8.568 21.8484 8.42834 21.8482V21.8482ZM8.42834 23.9797C8.0094 23.9792 7.60777 23.8106 7.31154 23.5109C7.01531 23.2113 6.84866 22.805 6.84814 22.3812C6.84866 21.9574 7.01531 21.5511 7.31154 21.2514C7.60777 20.9517 8.0094 20.7831 8.42834 20.7826C8.84728 20.7831 9.24891 20.9517 9.54514 21.2514C9.84137 21.5511 10.008 21.9574 10.0085 22.3812C10.008 22.805 9.84137 23.2113 9.54514 23.5109C9.24891 23.8106 8.84728 23.9792 8.42834 23.9797V23.9797ZM17.7366 22.3812C17.7367 22.5212 17.7095 22.6598 17.6565 22.7892C17.6036 22.9185 17.526 23.036 17.4282 23.135C17.3303 23.234 17.2141 23.3125 17.0862 23.3661C16.9584 23.4196 16.8213 23.4471 16.6829 23.4471C16.5446 23.4471 16.4075 23.4196 16.2796 23.3661C16.1518 23.3125 16.0356 23.234 15.9377 23.135C15.8399 23.036 15.7623 22.9185 15.7094 22.7892C15.6564 22.6598 15.6292 22.5212 15.6293 22.3812C15.6292 22.2412 15.6564 22.1025 15.7094 21.9732C15.7623 21.8438 15.8399 21.7263 15.9377 21.6273C16.0356 21.5283 16.1518 21.4498 16.2796 21.3962C16.4075 21.3427 16.5446 21.3152 16.6829 21.3153C16.8213 21.3152 16.9584 21.3427 17.0862 21.3962C17.2141 21.4498 17.3303 21.5283 17.4282 21.6273C17.526 21.7263 17.6036 21.8438 17.6565 21.9732C17.7095 22.1025 17.7367 22.2412 17.7366 22.3812" fill="white"/>
<path fill-rule="evenodd" clip-rule="evenodd" d="M16.683 21.8482C16.5433 21.8484 16.4095 21.9047 16.3107 22.0046C16.212 22.1045 16.1564 22.2399 16.1562 22.3812C16.1562 22.6742 16.3925 22.9138 16.683 22.9138C16.8226 22.9136 16.9564 22.8574 17.0552 22.7576C17.1539 22.6577 17.2095 22.5224 17.2098 22.3812C17.2096 22.2399 17.154 22.1045 17.0553 22.0046C16.9565 21.9047 16.8226 21.8484 16.683 21.8482V21.8482ZM16.683 23.9797C16.264 23.9792 15.8624 23.8106 15.5662 23.5109C15.2699 23.2113 15.1033 22.805 15.1028 22.3812C15.1033 21.9574 15.2699 21.5511 15.5662 21.2514C15.8624 20.9517 16.264 20.7831 16.683 20.7826C17.1019 20.7831 17.5035 20.9517 17.7998 21.2514C18.096 21.5511 18.2627 21.9574 18.2632 22.3812C18.2627 22.805 18.096 23.2113 17.7998 23.5109C17.5035 23.8106 17.1019 23.9792 16.683 23.9797Z" fill="white"/>
</g>
<defs>
<clipPath id="clip0">
<rect width="24" height="24" fill="white"/>
</clipPath>
</defs>
</svg>
