<svg width="24" height="24" viewBox="0 0 24 24" fill="none" xmlns="http://www.w3.org/2000/svg">
<path fill-rule="evenodd" clip-rule="evenodd" d="M5.54661 20.1344L0 14.4783L1.56522 12.913L5.73913 15.5217L17.7391 3L19.3043 4.04348L7.12174 20.0363C6.93815 20.2773 6.65892 20.4266 6.35659 20.4454C6.05426 20.4642 5.75867 20.3507 5.54661 20.1344Z" fill="white"/>
<path opacity="0.497489" fill-rule="evenodd" clip-rule="evenodd" d="M23.4783 7.6957H20.8696C20.5814 7.6957 20.3478 7.46211 20.3478 7.17396C20.3478 6.88581 20.5814 6.65222 20.8696 6.65222H23.4783C23.7664 6.65222 24 6.88581 24 7.17396C24 7.46211 23.7664 7.6957 23.4783 7.6957Z" fill="white"/>
<path opacity="0.497489" fill-rule="evenodd" clip-rule="evenodd" d="M23.4783 12.3913H17.2174C16.9292 12.3913 16.6956 12.1577 16.6956 11.8695C16.6956 11.5814 16.9292 11.3478 17.2174 11.3478H23.4783C23.7664 11.3478 24 11.5814 24 11.8695C24 12.1577 23.7664 12.3913 23.4783 12.3913Z" fill="white"/>
<path opacity="0.497489" fill-rule="evenodd" clip-rule="evenodd" d="M23.4783 17.0869H13.5652C13.2771 17.0869 13.0435 16.8533 13.0435 16.5652C13.0435 16.277 13.2771 16.0435 13.5652 16.0435H23.4783C23.7664 16.0435 24 16.277 24 16.5652C24 16.8533 23.7664 17.0869 23.4783 17.0869Z" fill="white"/>
<path opacity="0.497489" fill-rule="evenodd" clip-rule="evenodd" d="M23.4783 21.7826H9.91304C9.62489 21.7826 9.3913 21.549 9.3913 21.2609C9.3913 20.9727 9.62489 20.7391 9.91304 20.7391H23.4783C23.7664 20.7391 24 20.9727 24 21.2609C24 21.549 23.7664 21.7826 23.4783 21.7826Z" fill="white"/>
</svg>
