<svg width="24" height="24" viewBox="0 0 24 24" fill="none" xmlns="http://www.w3.org/2000/svg">
<mask id="mask0" mask-type="alpha" maskUnits="userSpaceOnUse" x="0" y="0" width="24" height="24">
<path fill-rule="evenodd" clip-rule="evenodd" d="M12 24C18.6274 24 24 18.6274 24 12C24 5.37258 18.6274 0 12 0C5.37258 0 0 5.37258 0 12C0 18.6274 5.37258 24 12 24ZM12 21.6C6.69809 21.6 2.40002 17.3019 2.40002 12C2.40002 6.69807 6.69809 2.4 12 2.4C17.302 2.4 21.6 6.69807 21.6 12C21.6 17.3019 17.302 21.6 12 21.6ZM14.7514 7.55147L12 10.3029L9.24848 7.55147C8.77985 7.08284 8.02005 7.08284 7.55142 7.55147C7.08279 8.0201 7.08279 8.7799 7.55142 9.24853L10.3029 12L7.55142 14.7515C7.08279 15.2201 7.08279 15.9799 7.55142 16.4485C8.02005 16.9172 8.77985 16.9172 9.24848 16.4485L12 13.6971L14.7514 16.4485C15.2201 16.9172 15.9798 16.9172 16.4485 16.4485C16.9171 15.9799 16.9171 15.2201 16.4485 14.7515L13.697 12L16.4485 9.24853C16.9171 8.7799 16.9171 8.0201 16.4485 7.55147C15.9798 7.08284 15.2201 7.08284 14.7514 7.55147Z" fill="white"/>
</mask>
<g mask="url(#mask0)">
<rect width="24" height="24" fill="white"/>
</g>
</svg>
