<svg width="25" height="24" viewBox="0 0 25 24" fill="none" xmlns="http://www.w3.org/2000/svg">
<mask id="mask0" mask-type="alpha" maskUnits="userSpaceOnUse" x="1" y="0" width="24" height="24">
<path fill-rule="evenodd" clip-rule="evenodd" d="M13 24C19.6274 24 25 18.6274 25 12C25 5.37258 19.6274 0 13 0C6.37258 0 1 5.37258 1 12C1 18.6274 6.37258 24 13 24ZM12.9999 21.6C7.69797 21.6 3.3999 17.3019 3.3999 12C3.3999 6.69807 7.69797 2.4 12.9999 2.4C18.3018 2.4 22.5999 6.69807 22.5999 12C22.5999 17.3019 18.3018 21.6 12.9999 21.6ZM7.263 12.4504C7.67701 11.9329 8.43216 11.849 8.94968 12.263L11.0736 13.9621L16.9155 7.58914C17.3633 7.10059 18.1224 7.06759 18.6109 7.51542C19.0995 7.96325 19.1325 8.72233 18.6846 9.21088L11.3265 17.2379L7.45041 14.137C6.9329 13.723 6.84899 12.9679 7.263 12.4504Z" fill="white"/>
</mask>
<g mask="url(#mask0)">
<rect x="1" width="24" height="24" fill="white"/>
</g>
</svg>
