<svg width="24" height="25" viewBox="0 0 24 25" fill="none" xmlns="http://www.w3.org/2000/svg">
<path d="M8.4 2C5.08629 2 2.4 4.68629 2.4 8C2.4 11.3137 5.08629 14 8.4 14C11.7137 14 14.4 11.3137 14.4 8C14.4 4.68629 11.7137 2 8.4 2ZM4.8 8C4.8 6.01178 6.41178 4.4 8.4 4.4C10.3882 4.4 12 6.01178 12 8C12 9.98823 10.3882 11.6 8.4 11.6C6.41178 11.6 4.8 9.98823 4.8 8Z" fill="#FAFAFA"/>
<path d="M17.8901 8.26193C17.5525 8.08981 17.1789 8.00007 16.8 8.00007V5.60007C17.5579 5.60007 18.3051 5.77948 18.9803 6.12374C19.0546 6.16166 19.1279 6.20145 19.2 6.24308C19.7825 6.57937 20.2886 7.03483 20.6848 7.58067C21.1299 8.19407 21.4235 8.90416 21.5415 9.65284C21.6595 10.4015 21.5985 11.1675 21.3635 11.8881C21.1286 12.6086 20.7263 13.2633 20.1897 13.7986C19.653 14.3338 18.9973 14.7343 18.2761 14.9674C17.6343 15.1748 16.957 15.2444 16.2883 15.1726C16.2055 15.1638 16.1228 15.1527 16.0404 15.1395C15.2926 15.0197 14.5837 14.7245 13.9718 14.2783L13.9705 14.2774L15.3852 12.3387C15.6914 12.5621 16.0461 12.7097 16.4202 12.7697C16.7944 12.8297 17.1774 12.8002 17.538 12.6836C17.8986 12.5671 18.2265 12.3668 18.4948 12.0992C18.7631 11.8316 18.9642 11.5043 19.0817 11.144C19.1992 10.7837 19.2297 10.4008 19.1707 10.0264C19.1117 9.6521 18.9649 9.29707 18.7423 8.99038C18.5197 8.68369 18.2277 8.43406 17.8901 8.26193Z" fill="#FAFAFA"/>
<path d="M21.5977 23.6C21.5977 22.97 21.4736 22.3461 21.2325 21.764C20.9914 21.1819 20.638 20.653 20.1925 20.2075C19.747 19.762 19.2181 19.4086 18.636 19.1675C18.0539 18.9264 17.43 18.8023 16.8 18.8023V16.4C17.6185 16.4 18.4301 16.5396 19.2 16.8118C19.3195 16.854 19.438 16.8995 19.5553 16.9481C20.4289 17.3099 21.2226 17.8402 21.8912 18.5088C22.5598 19.1774 23.0901 19.9711 23.4519 20.8447C23.5005 20.962 23.546 21.0805 23.5882 21.2C23.8604 21.9699 24 22.7815 24 23.6H21.5977Z" fill="#FAFAFA"/>
<path d="M16.8 23.6H14.4C14.4 20.2863 11.7137 17.6 8.4 17.6C5.08629 17.6 2.4 20.2863 2.4 23.6H0C0 18.9608 3.76081 15.2 8.4 15.2C13.0392 15.2 16.8 18.9608 16.8 23.6Z" fill="#FAFAFA"/>
</svg>
