<svg width="25" height="24" viewBox="0 0 25 24" fill="none" xmlns="http://www.w3.org/2000/svg">
<path d="M16 24H8.8V21.6H16V24ZM16 20.4H8.8L8.5324 18C8.38844 17.2061 8.15036 16.4323 7.8232 15.6948C7.3984 15.0948 6.9556 14.5824 6.5272 14.082C4.95294 12.6064 4.04158 10.5573 4 8.4C4 3.76081 7.76081 0 12.4 0C17.0392 0 20.8 3.76081 20.8 8.4C20.7512 10.5442 19.8468 12.5797 18.2884 14.0532L18.268 14.0772C17.8408 14.5776 17.3992 15.096 16.9828 15.69C16.6559 16.4295 16.4171 17.2048 16.2712 18L16 20.4ZM12.4 2.4C9.08794 2.40397 6.40397 5.08794 6.4 8.4C6.4 10.2528 7.1728 11.1516 8.3416 12.5136C8.7856 13.032 9.2896 13.6176 9.7816 14.3028C10.3787 15.463 10.7866 16.7111 10.99 18H13.8112C14.0198 16.7148 14.4271 15.47 15.0184 14.31C15.4984 13.6248 16.0012 13.0356 16.444 12.5172L16.462 12.4956C17.6284 11.1276 18.4 10.224 18.4 8.4C18.396 5.08794 15.7121 2.40397 12.4 2.4Z" fill="#FAFAFA"/>
</svg>
