<svg width="24" height="25" viewBox="0 0 24 25" fill="none" xmlns="http://www.w3.org/2000/svg">
<path d="M12 8.8C10.0296 8.8 8.4 10.4308 8.4 12.4C8.4 14.3704 10.0296 16 12 16C13.9692 16 15.6 14.3704 15.6 12.4C15.6 10.4308 13.9692 8.8 12 8.8Z" fill="#FAFAFA"/>
<path d="M12 4C2.8896 4 0.151582 11.9404 0.126517 12.0208L0 12.4L0.125323 12.7792C0.151582 12.8596 2.8896 20.8 12 20.8C21.1104 20.8 23.8484 12.8596 23.8735 12.7792L24 12.4L23.8747 12.0208C23.8484 11.9404 21.1104 4 12 4ZM12 18.4C5.61329 18.4 3.13905 13.7848 2.53988 12.4C3.14144 11.0104 5.61687 6.4 12 6.4C18.3867 6.4 20.861 11.0152 21.4601 12.4C20.8586 13.7896 18.3831 18.4 12 18.4Z" fill="#FAFAFA"/>
</svg>
