<svg width="246" height="53" viewBox="0 0 246 53" fill="none" xmlns="http://www.w3.org/2000/svg">
<g opacity="0.95">
<g opacity="0.95">
<path opacity="0.95" d="M91.7131 28.6135C91.7131 29.9651 91.5194 31.1998 91.1318 32.3178C90.7442 33.4358 90.1976 34.3824 89.4921 35.1575C88.8362 35.8929 88.0635 36.4618 87.1741 36.8643C86.2846 37.2668 85.3431 37.468 84.3493 37.468C83.4847 37.468 82.7021 37.3736 82.0015 37.1848C81.3009 36.996 80.5878 36.7028 79.8624 36.3053V43.2816H77.0599V20.4894H79.8624V22.2335C80.6077 21.6074 81.445 21.0832 82.3741 20.6608C83.3033 20.2385 84.2946 20.0273 85.348 20.0273C87.3555 20.0273 88.9181 20.785 90.0361 22.3006C91.1542 23.8161 91.7131 25.9204 91.7131 28.6135ZM88.8213 28.688C88.8213 26.6806 88.4784 25.18 87.7927 24.1862C87.107 23.1925 86.0536 22.6956 84.6325 22.6956C83.8275 22.6956 83.0176 22.8695 82.2027 23.2173C81.3878 23.5651 80.6077 24.0223 79.8624 24.5887V34.0246C80.6574 34.3824 81.3406 34.6258 81.912 34.755C82.4835 34.8842 83.1319 34.9488 83.8574 34.9488C85.4176 34.9488 86.635 34.4221 87.5095 33.3687C88.384 32.3153 88.8213 30.7551 88.8213 28.688ZM106.301 23.5453H106.152C105.735 23.4459 105.33 23.3738 104.937 23.3291C104.545 23.2844 104.08 23.262 103.543 23.262C102.679 23.262 101.844 23.4533 101.039 23.8359C100.234 24.2185 99.459 24.7129 98.7136 25.3191V37.1401H95.9112V20.4894H98.7136V22.949C99.8267 22.0546 100.808 21.4211 101.658 21.0484C102.507 20.6757 103.374 20.4894 104.259 20.4894C104.746 20.4894 105.099 20.5018 105.317 20.5267C105.536 20.5515 105.864 20.5987 106.301 20.6683V23.5453ZM111.781 17.7019H108.621V14.7951H111.781V17.7019ZM111.602 37.1401H108.8V20.4894H111.602V37.1401ZM129.291 36.0966C128.357 36.5438 127.47 36.8917 126.63 37.1401C125.79 37.3885 124.898 37.5128 123.954 37.5128C122.752 37.5128 121.649 37.3364 120.645 36.9836C119.641 36.6308 118.782 36.0966 118.066 35.3811C117.341 34.6656 116.779 33.7613 116.382 32.6681C115.984 31.575 115.785 30.298 115.785 28.8371C115.785 26.1142 116.533 23.9776 118.029 22.4273C119.524 20.877 121.5 20.1018 123.954 20.1018C124.908 20.1018 125.845 20.236 126.764 20.5043C127.683 20.7726 128.526 21.1006 129.291 21.4881V24.6036H129.142C128.287 23.9378 127.405 23.426 126.496 23.0682C125.586 22.7105 124.7 22.5316 123.835 22.5316C122.245 22.5316 120.99 23.0658 120.071 24.1341C119.152 25.2024 118.692 26.77 118.692 28.8371C118.692 30.8445 119.142 32.3874 120.041 33.4656C120.941 34.5439 122.205 35.083 123.835 35.083C124.401 35.083 124.978 35.0084 125.564 34.8594C126.15 34.7103 126.677 34.5165 127.144 34.278C127.552 34.0693 127.934 33.8482 128.292 33.6147C128.65 33.3811 128.933 33.1799 129.142 33.011H129.291V36.0966ZM146.651 29.1054H134.383C134.383 30.129 134.537 31.0209 134.845 31.7812C135.153 32.5414 135.576 33.165 136.112 33.6519C136.629 34.129 137.243 34.4867 137.953 34.7252C138.664 34.9637 139.446 35.083 140.301 35.083C141.434 35.083 142.574 34.8569 143.722 34.4047C144.87 33.9526 145.687 33.5079 146.174 33.0706H146.323V36.1264C145.379 36.524 144.415 36.8569 143.431 37.1252C142.448 37.3935 141.414 37.5277 140.331 37.5277C137.568 37.5277 135.412 36.7799 133.861 35.2842C132.311 33.7886 131.536 31.6644 131.536 28.9116C131.536 26.1887 132.279 24.0272 133.765 22.4273C135.25 20.8273 137.205 20.0273 139.63 20.0273C141.876 20.0273 143.608 20.6832 144.825 21.995C146.043 23.3068 146.651 25.1701 146.651 27.585V29.1054ZM143.923 26.9589C143.913 25.4881 143.543 24.3502 142.813 23.5453C142.082 22.7403 140.972 22.3378 139.481 22.3378C137.981 22.3378 136.786 22.7801 135.896 23.6645C135.007 24.549 134.502 25.6471 134.383 26.9589H143.923ZM164.236 35.247C164.236 38.0693 163.595 40.1413 162.313 41.463C161.031 42.7847 159.058 43.4456 156.395 43.4456C155.51 43.4456 154.648 43.3835 153.808 43.2593C152.969 43.135 152.141 42.9586 151.326 42.7301V39.868H151.475C151.933 40.0469 152.658 40.268 153.652 40.5314C154.646 40.7947 155.639 40.9264 156.633 40.9264C157.587 40.9264 158.377 40.8121 159.003 40.5835C159.629 40.355 160.116 40.037 160.464 39.6295C160.812 39.2419 161.06 38.7749 161.209 38.2283C161.359 37.6817 161.433 37.0705 161.433 36.3948V34.8743C160.588 35.5501 159.781 36.0544 159.011 36.3873C158.241 36.7202 157.259 36.8867 156.067 36.8867C154.079 36.8867 152.502 36.1687 151.334 34.7327C150.166 33.2967 149.582 31.2719 149.582 28.6582C149.582 27.2272 149.784 25.9924 150.186 24.9539C150.589 23.9154 151.138 23.0186 151.833 22.2633C152.479 21.5577 153.264 21.0087 154.188 20.6161C155.113 20.2236 156.032 20.0273 156.946 20.0273C157.91 20.0273 158.718 20.1242 159.368 20.318C160.019 20.5118 160.708 20.8074 161.433 21.2049L161.612 20.4894H164.236V35.247ZM161.433 32.5638V23.4856C160.688 23.1477 159.995 22.9068 159.354 22.7627C158.713 22.6186 158.074 22.5465 157.438 22.5465C155.898 22.5465 154.685 23.0633 153.801 24.0968C152.916 25.1303 152.474 26.6309 152.474 28.5986C152.474 30.4669 152.802 31.883 153.458 32.847C154.114 33.811 155.202 34.2929 156.723 34.2929C157.537 34.2929 158.355 34.1364 159.175 33.8234C159.995 33.5103 160.747 33.0905 161.433 32.5638ZM183.519 29.1054H171.251C171.251 30.129 171.405 31.0209 171.713 31.7812C172.021 32.5414 172.443 33.165 172.98 33.6519C173.497 34.129 174.11 34.4867 174.821 34.7252C175.532 34.9637 176.314 35.083 177.169 35.083C178.302 35.083 179.442 34.8569 180.59 34.4047C181.738 33.9526 182.555 33.5079 183.042 33.0706H183.191V36.1264C182.247 36.524 181.283 36.8569 180.299 37.1252C179.315 37.3935 178.282 37.5277 177.199 37.5277C174.436 37.5277 172.279 36.7799 170.729 35.2842C169.179 33.7886 168.404 31.6644 168.404 28.9116C168.404 26.1887 169.147 24.0272 170.632 22.4273C172.118 20.8273 174.073 20.0273 176.498 20.0273C178.744 20.0273 180.476 20.6832 181.693 21.995C182.91 23.3068 183.519 25.1701 183.519 27.585V29.1054ZM180.791 26.9589C180.781 25.4881 180.411 24.3502 179.681 23.5453C178.95 22.7403 177.84 22.3378 176.349 22.3378C174.848 22.3378 173.653 22.7801 172.764 23.6645C171.874 24.549 171.37 25.6471 171.251 26.9589H180.791ZM201.521 37.1401H198.718V27.6595C198.718 26.8943 198.673 26.1763 198.584 25.5055C198.495 24.8347 198.331 24.3105 198.092 23.9328C197.844 23.5154 197.486 23.2049 197.019 23.0012C196.552 22.7974 195.946 22.6956 195.2 22.6956C194.435 22.6956 193.635 22.8844 192.8 23.262C191.965 23.6397 191.165 24.1216 190.4 24.708V37.1401H187.598V20.4894H190.4V22.3378C191.275 21.6124 192.179 21.0459 193.113 20.6385C194.047 20.231 195.006 20.0273 195.99 20.0273C197.789 20.0273 199.16 20.5689 200.104 21.6521C201.049 22.7353 201.521 24.2956 201.521 26.3328V37.1401ZM209.758 17.7019H206.598V14.7951H209.758V17.7019ZM209.579 37.1401H206.777V20.4894H209.579V37.1401ZM228.759 37.1401H225.956V35.2917C225.012 36.037 224.108 36.6084 223.243 37.0059C222.379 37.4034 221.425 37.6022 220.381 37.6022C218.632 37.6022 217.271 37.0681 216.297 35.9997C215.323 34.9314 214.836 33.3638 214.836 31.2967V20.4894H217.638V29.97C217.638 30.8147 217.678 31.5377 217.758 32.1389C217.837 32.7402 218.006 33.2544 218.264 33.6818C218.533 34.119 218.881 34.437 219.308 34.6358C219.735 34.8345 220.356 34.9339 221.171 34.9339C221.897 34.9339 222.689 34.7451 223.549 34.3675C224.408 33.9898 225.211 33.5079 225.956 32.9215V20.4894H228.759V37.1401ZM246 32.3402C246 33.8606 245.371 35.1078 244.114 36.0817C242.857 37.0556 241.14 37.5426 238.964 37.5426C237.732 37.5426 236.601 37.396 235.573 37.1028C234.544 36.8097 233.682 36.4892 232.986 36.1414V32.9961H233.136C234.02 33.6619 235.004 34.1911 236.087 34.5836C237.17 34.9762 238.209 35.1724 239.203 35.1724C240.435 35.1724 241.399 34.9737 242.094 34.5762C242.79 34.1786 243.138 33.5526 243.138 32.6979C243.138 32.042 242.949 31.5451 242.571 31.2073C242.194 30.8694 241.468 30.5812 240.395 30.3427C239.998 30.2532 239.478 30.1489 238.837 30.0296C238.196 29.9104 237.613 29.7812 237.086 29.6421C235.625 29.2545 234.589 28.6856 233.978 27.9353C233.367 27.185 233.061 26.2632 233.061 25.1701C233.061 24.4844 233.203 23.8384 233.486 23.2322C233.769 22.626 234.199 22.0844 234.775 21.6074C235.332 21.1403 236.04 20.7701 236.899 20.4969C237.759 20.2236 238.721 20.0869 239.784 20.0869C240.778 20.0869 241.784 20.2087 242.803 20.4521C243.821 20.6956 244.668 20.9913 245.344 21.3391V24.3353H245.195C244.479 23.8086 243.61 23.3639 242.586 23.0012C241.563 22.6384 240.559 22.4571 239.575 22.4571C238.552 22.4571 237.687 22.6533 236.981 23.0459C236.276 23.4384 235.923 24.0223 235.923 24.7974C235.923 25.4831 236.137 25.9999 236.564 26.3477C236.981 26.6955 237.657 26.9788 238.591 27.1974C239.108 27.3166 239.687 27.4359 240.328 27.5551C240.969 27.6744 241.503 27.7837 241.93 27.8831C243.232 28.1812 244.236 28.693 244.942 29.4185C245.647 30.1539 246 31.1278 246 32.3402Z" fill="white" fill-opacity="0.95"/>
<g opacity="0.95">
<g opacity="0.95">
<mask id="mask0" mask-type="alpha" maskUnits="userSpaceOnUse" x="0" y="0" width="52" height="40">
<g opacity="0.95">
<path opacity="0.95" d="M8.98902 0C10.2592 0 11.3595 0.881108 11.6371 2.12062L14.0843 13.048L46.9801 13.0482C49.8692 13.0482 52.0372 15.6918 51.47 18.525L50.2123 24.816L39.4385 20.4493C36.8696 19.408 34.2177 21.7178 34.8667 24.3882L34.8878 24.4709L39.0073 39.8457H16.6182C15.6341 39.8457 14.7899 39.2471 14.4297 38.3941C14.2158 38.102 14.0573 37.7619 13.9731 37.3859L6.81587 5.42733H2.71367C1.21495 5.42733 0 4.21238 0 2.71367C0 1.21495 1.21495 0 2.71367 0H8.98902ZM38.1643 23.5929L49.5356 28.202L47.9441 36.1668C47.8317 36.7254 47.6205 37.2433 47.331 37.7035L46.6122 36.905L45.0469 39.5603C44.5487 39.7453 44.0117 39.8457 43.4548 39.8457H42.5191L38.1643 23.5929Z" fill="white"/>
</g>
</mask>
<g mask="url(#mask0)">
<path opacity="0.95" d="M8.98902 0C10.2592 0 11.3595 0.881108 11.6371 2.12062L14.0843 13.048L46.9801 13.0482C49.8692 13.0482 52.0372 15.6918 51.47 18.525L50.2123 24.816L39.4385 20.4493C36.8696 19.408 34.2177 21.7178 34.8667 24.3882L34.8878 24.4709L39.0073 39.8457H16.6182C15.6341 39.8457 14.7899 39.2471 14.4297 38.3941C14.2158 38.102 14.0573 37.7619 13.9731 37.3859L6.81587 5.42733H2.71367C1.21495 5.42733 0 4.21238 0 2.71367C0 1.21495 1.21495 0 2.71367 0H8.98902ZM38.1643 23.5929L49.5356 28.202L47.9441 36.1668C47.8317 36.7254 47.6205 37.2433 47.331 37.7035L46.6122 36.905L45.0469 39.5603C44.5487 39.7453 44.0117 39.8457 43.4548 39.8457H42.5191L38.1643 23.5929Z" fill="white"/>
<path opacity="0.15" fill-rule="evenodd" clip-rule="evenodd" d="M-0.989807 -0.348242L10.9826 -0.554016L55.9194 9.65155C57.4993 9.65155 39.6816 22.7174 2.46641 48.849L-0.989807 -0.348242Z" fill="#4651B8"/>
</g>
</g>
<path opacity="0.95" fill-rule="evenodd" clip-rule="evenodd" d="M23.4054 48.4955C23.4054 49.7148 22.4176 50.7004 21.2005 50.7004C19.9834 50.7004 18.9957 49.7148 18.9957 48.4955C18.9957 47.2763 19.9834 46.2907 21.2005 46.2907C22.4176 46.2907 23.4054 47.2763 23.4054 48.4955Z" fill="white"/>
<path opacity="0.95" d="M21.8789 48.4955C21.8789 48.1203 21.5756 47.8171 21.2005 47.8171C20.8255 47.8171 20.5221 48.1203 20.5221 48.4955C20.5221 48.8708 20.8255 49.1739 21.2005 49.1739C21.5756 49.1739 21.8789 48.8708 21.8789 48.4955ZM24.9318 48.4955C24.9318 50.5573 23.2612 52.2268 21.2005 52.2268C19.1399 52.2268 17.4692 50.5573 17.4692 48.4955C17.4692 46.4337 19.1399 44.7642 21.2005 44.7642C23.2612 44.7642 24.9318 46.4337 24.9318 48.4955Z" fill="white"/>
<path opacity="0.95" fill-rule="evenodd" clip-rule="evenodd" d="M41.0442 48.4955C41.0442 49.7148 40.0565 50.7004 38.8394 50.7004C37.6223 50.7004 36.6345 49.7148 36.6345 48.4955C36.6345 47.2763 37.6223 46.2907 38.8394 46.2907C40.0565 46.2907 41.0442 47.2763 41.0442 48.4955Z" fill="white"/>
<path opacity="0.95" d="M39.5178 48.4955C39.5178 48.1203 39.2144 47.8171 38.8394 47.8171C38.4643 47.8171 38.161 48.1203 38.161 48.4955C38.161 48.8708 38.4643 49.1739 38.8394 49.1739C39.2144 49.1739 39.5178 48.8708 39.5178 48.4955ZM42.5707 48.4955C42.5707 50.5573 40.9 52.2268 38.8394 52.2268C36.7788 52.2268 35.1081 50.5573 35.1081 48.4955C35.1081 46.4337 36.7788 44.7642 38.8394 44.7642C40.9 44.7642 42.5707 46.4337 42.5707 48.4955Z" fill="white"/>
<path opacity="0.95" d="M54.5465 36.8563C54.7997 37.1377 54.7737 37.5718 54.4886 37.8209L50.5337 41.2769C50.2545 41.5209 49.8311 41.4955 49.583 41.2199L46.7268 38.0461L43.8408 42.941C43.5353 43.459 42.7567 43.3529 42.6011 42.772L37.509 23.7683C37.3641 23.2273 37.9001 22.7536 38.4192 22.964L56.2149 30.1769C56.7584 30.3971 56.7852 31.1567 56.2586 31.4148L51.6723 33.6626L54.5465 36.8563Z" fill="white"/>
</g>
</g>
</g>
</svg>
