<svg width="426" height="426" viewBox="0 0 426 426" fill="none" xmlns="http://www.w3.org/2000/svg">
<path d="M319.22 210.108C318.472 210.666 317.636 211.096 316.747 211.38C314.302 212.222 311.638 212.189 309.215 211.284C307.535 210.672 306.025 209.673 304.806 208.368C303.404 206.861 302.434 205.005 301.998 202.996C301.752 201.914 301.675 200.802 301.768 199.697C301.848 198.542 302.11 197.406 302.544 196.332C303.449 194.052 305.062 192.12 307.147 190.821C309.232 189.522 311.68 188.924 314.131 189.115C316.409 189.293 318.584 190.142 320.379 191.552C321.997 192.826 323.241 194.51 323.983 196.428C324.626 198.092 324.865 199.883 324.682 201.657C324.426 204.227 323.285 206.629 321.453 208.454C320.805 209.125 320.051 209.684 319.22 210.108C319.941 209.546 320.629 208.943 321.28 208.301C322.99 206.465 324.03 204.108 324.232 201.609C324.382 199.911 324.13 198.202 323.494 196.619C322.768 194.803 321.57 193.213 320.025 192.011C319.196 191.363 318.276 190.841 317.293 190.462C316.272 190.053 315.191 189.81 314.093 189.745C311.777 189.57 309.466 190.137 307.496 191.363C305.526 192.589 303.999 194.41 303.139 196.562C302.723 197.577 302.471 198.651 302.391 199.745C302.295 200.791 302.359 201.845 302.583 202.871C302.959 204.662 303.778 206.331 304.964 207.727C306.151 209.122 307.668 210.201 309.377 210.863C311.712 211.77 314.284 211.867 316.68 211.141C318.405 210.615 319.181 210.041 319.22 210.108Z" fill="#E0E0E0"/>
<path d="M321.28 224.974L321.568 225.232L322.43 226.064L325.804 229.381H325.679L334.534 223.788L334.467 223.98C333.825 222.182 333.116 220.156 332.359 218.024V217.919L332.436 217.833C333.987 216.18 335.305 214.324 336.355 212.316L336.413 212.202H342.882L342.652 212.374C343.39 209.171 344.175 205.758 344.99 202.183L345.124 202.47L339.422 199.736L339.278 199.669V199.506C339.205 197.236 338.828 194.985 338.157 192.814L338.109 192.652L338.224 192.537C339.623 191.16 341.157 189.669 342.719 188.082V188.445L337.045 179.622L337.4 179.746L331.429 181.83L331.247 181.887L331.113 181.763C329.463 180.224 327.617 178.909 325.622 177.853L325.449 177.767V177.576C325.449 175.597 325.449 173.446 325.449 171.257L325.698 171.572L315.53 169.23L315.894 169.058L313.134 174.794L313.058 174.966H312.856C310.604 175.038 308.37 175.408 306.215 176.065L305.889 175.979L305.822 175.912L305.678 175.769L305.4 175.482L304.844 174.918L303.723 173.8L301.5 171.563L301.902 171.61L293.009 177.146L293.143 176.763C293.839 178.771 294.532 180.759 295.222 182.729L295.29 182.91L295.155 183.054C293.606 184.694 292.287 186.537 291.236 188.531L291.14 188.694H290.958H284.623L284.92 188.455C284.115 191.922 283.326 195.316 282.553 198.636L282.39 198.302L288.092 201.055L288.246 201.131V201.303C288.308 203.574 288.679 205.825 289.348 207.995L289.396 208.158L289.271 208.273L284.767 212.708V212.374L290.297 221.255L290.009 221.159L295.989 219.094L296.123 219.047L296.229 219.142C297.88 220.691 299.73 222.016 301.73 223.081L301.845 223.138V223.272C301.845 225.567 301.845 227.631 301.797 229.582L301.643 229.4L311.84 231.8L311.677 231.876L314.476 226.207V226.15H314.533C316.249 226.102 317.956 225.89 319.632 225.519L320.868 225.222L321.28 225.136L320.878 225.28C320.609 225.366 320.207 225.49 319.651 225.624C317.978 226.044 316.267 226.291 314.543 226.36L314.629 226.293L311.917 232.029L311.86 232.134H311.754L301.528 229.83H301.385V229.677C301.385 227.765 301.385 225.653 301.385 223.358L301.49 223.549C299.449 222.479 297.56 221.142 295.874 219.572L296.104 219.62L290.134 221.714L289.952 221.781L289.846 221.618L284.278 212.756L284.163 212.575L284.316 212.422L288.801 207.976L288.734 208.254C288.051 206.049 287.667 203.763 287.594 201.456L287.757 201.705L282.007 198.971L281.796 198.866L281.844 198.636L284.23 188.225L284.278 187.986H284.527H290.862L290.584 188.149C291.666 186.106 293.017 184.215 294.6 182.528L294.532 182.853C293.842 180.883 293.146 178.895 292.443 176.887L292.357 176.648L292.577 176.515L301.461 170.979L301.682 170.836L301.864 171.018L304.087 173.255L305.199 174.383L305.764 174.947L306.042 175.234L306.186 175.367L306.253 175.444C305.602 175.281 306.071 175.396 305.927 175.358C308.139 174.682 310.43 174.303 312.741 174.23L312.463 174.411L315.223 168.675L315.329 168.446L315.578 168.503L325.785 170.855L326.034 170.912V171.171C326.034 173.35 326.034 175.511 326.034 177.49L325.871 177.212C327.916 178.292 329.808 179.639 331.496 181.218L331.19 181.151L337.17 179.086L337.39 179L337.524 179.21L343.064 188.082L343.179 188.273L343.016 188.436C341.454 189.984 339.911 191.495 338.511 192.872L338.588 192.594C339.26 194.801 339.637 197.086 339.709 199.391L339.556 199.162L345.258 201.925L345.44 202.011L345.392 202.202C344.559 205.777 343.754 209.181 343.006 212.383V212.565H342.824H336.489L336.671 212.45C335.589 214.479 334.239 216.354 332.656 218.024V217.833C333.403 219.984 334.093 222.001 334.716 223.808L334.764 223.932L334.649 223.999L325.727 229.486H325.66L325.602 229.429L322.334 226.064L321.501 225.184C321.422 225.119 321.348 225.049 321.28 224.974Z" fill="#E0E0E0"/>
<path fill-rule="evenodd" clip-rule="evenodd" d="M342.125 149.336C339.034 150.286 335.83 150.819 332.598 150.923L328.698 158.963L314.265 155.636V146.697C311.403 145.193 308.756 143.312 306.397 141.105L297.944 144.049L290.105 131.506L296.459 125.226C295.509 122.139 294.977 118.94 294.877 115.713L286.808 111.832L290.191 97.4061H299.142C300.656 94.5526 302.545 91.9131 304.758 89.5574L301.806 81.1542L314.38 73.3342L320.676 79.6724C323.767 78.7249 326.971 78.1944 330.203 78.0951L334.103 70.0456L348.536 73.382V82.311C351.393 83.8191 354.035 85.6998 356.394 87.9035L364.847 84.9686L372.696 97.5017L366.323 103.83C367.281 106.912 367.816 110.108 367.914 113.333L375.974 117.224L372.639 131.621H363.688C362.173 134.471 360.284 137.108 358.072 139.46L361.023 147.892L348.421 155.722L342.125 149.374V149.336ZM339.249 128.304C341.917 126.643 344.03 124.23 345.323 121.371C346.616 118.511 347.03 115.334 346.512 112.24C345.995 109.146 344.569 106.275 342.416 103.989C340.262 101.703 337.478 100.106 334.414 99.3987C331.351 98.6916 328.146 98.9064 325.205 100.016C322.264 101.126 319.719 103.081 317.891 105.633C316.064 108.186 315.036 111.222 314.938 114.357C314.84 117.492 315.677 120.586 317.341 123.247C318.445 125.016 319.886 126.551 321.585 127.765C323.283 128.978 325.204 129.846 327.239 130.318C329.273 130.79 331.381 130.858 333.442 130.517C335.503 130.177 337.476 129.434 339.249 128.332V128.304Z" fill="#E0E0E0"/>
<path fill-rule="evenodd" clip-rule="evenodd" d="M376.127 196.963C374.482 197.465 372.777 197.748 371.057 197.805L368.987 202.078L361.32 200.309V195.529C359.799 194.727 358.391 193.727 357.132 192.556L352.638 194.114L348.469 187.422L351.852 184.086C351.341 182.446 351.057 180.745 351.009 179.029L346.715 176.954L348.488 169.306H353.28C354.09 167.793 355.095 166.392 356.27 165.138L354.698 160.655L361.407 156.487L364.761 159.861C366.406 159.36 368.111 159.077 369.831 159.02L371.901 154.737L379.568 156.515V161.295C381.087 162.095 382.493 163.095 383.746 164.268L388.25 162.71L392.419 169.402L389.036 172.748C389.547 174.388 389.831 176.089 389.88 177.805L394.173 179.87L392.4 187.518H387.608C386.8 189.036 385.795 190.441 384.618 191.696L386.19 196.179L379.481 200.347L376.127 196.973V196.963ZM374.603 185.788C376.024 184.905 377.151 183.621 377.84 182.1C378.529 180.578 378.751 178.887 378.477 177.239C378.202 175.592 377.444 174.063 376.299 172.846C375.153 171.628 373.671 170.777 372.041 170.4C370.41 170.022 368.704 170.136 367.138 170.726C365.572 171.317 364.217 172.357 363.243 173.715C362.27 175.074 361.723 176.69 361.671 178.359C361.618 180.028 362.063 181.675 362.95 183.092C364.137 184.99 366.032 186.341 368.217 186.846C370.402 187.352 372.699 186.971 374.603 185.788Z" fill="#EBEBEB"/>
<path d="M82.0357 112.367C82.1411 112.463 77.6464 117.061 72.0017 122.625C66.3569 128.189 61.7089 132.625 61.6131 132.529C61.5172 132.434 66.0119 127.835 71.6567 122.272C77.3014 116.708 81.9399 112.272 82.0357 112.367Z" fill="#E0E0E0"/>
<path d="M82.0837 132.482C81.9878 132.577 77.2919 128.16 71.6567 122.625C66.0216 117.09 61.4694 112.52 61.5652 112.415C61.661 112.31 66.357 116.727 72.0017 122.271C77.6465 127.816 82.1891 132.376 82.0837 132.482Z" fill="#E0E0E0"/>
<path d="M102.362 239.601C102.362 239.734 96.6123 239.237 89.5587 238.501C82.5052 237.765 76.7934 237.038 76.803 236.905C76.8126 236.771 82.5531 237.258 89.6067 238.004C96.6602 238.75 102.382 239.457 102.362 239.601Z" fill="#E0E0E0"/>
<path d="M101.347 249.199C101.347 249.333 95.5964 248.845 88.5429 248.099C81.4894 247.354 75.768 246.646 75.7872 246.512C75.8063 246.379 81.5373 246.866 88.5908 247.602C95.6443 248.338 101.366 249.065 101.347 249.199Z" fill="#E0E0E0"/>
<path d="M32.2393 218.521C32.2393 218.521 24.6491 217.976 25.3487 234.964C26.0483 251.952 27.783 260.986 27.783 260.986C27.783 260.986 27.5625 264.753 24.6395 264.017C21.7165 263.28 16.2156 259.609 13.4938 262.353C10.7721 265.097 11.6825 269.552 15.4105 274.685C19.1386 279.819 26.9108 291.358 27.62 292.4C28.3292 293.442 28.5784 295.354 26.5083 295.172C24.4383 294.991 10.4462 290.259 8.59661 297.017C6.74698 303.776 19.5123 316.329 20.8828 317.763C22.2532 319.196 22.3299 320.057 21.774 320.908C21.2182 321.759 16.666 319.722 12.6313 318.537C8.59661 317.351 3.70898 316.692 2.97105 320.678C2.23311 324.665 7.84909 336.328 28.9042 348.593L39.0341 353.612L48.6177 347.513C68.3311 333.173 72.7587 321.042 71.6183 317.141C70.4778 313.241 65.686 314.397 61.7951 315.984C57.9042 317.571 53.5724 320.038 52.9399 319.244C52.3074 318.451 52.2882 317.571 53.5053 316.032C54.7224 314.493 66.1652 300.736 63.6447 294.159C61.1242 287.582 47.6785 293.729 45.6372 294.159C43.5959 294.589 43.7205 292.601 44.2571 291.511C44.7938 290.421 51.4161 278.127 54.6266 272.659C57.8371 267.19 58.3833 262.745 55.2974 260.231C52.2115 257.717 47.1897 261.933 44.3913 262.955C41.5929 263.978 40.9604 260.26 40.9604 260.26C40.9604 260.26 41.775 251.082 40.7687 234.123C39.7624 217.163 32.086 218.521 32.086 218.521" fill="#EBEBEB"/>
<path d="M32.8142 233.731C32.8218 233.849 32.8218 233.967 32.8142 234.084C32.8142 234.343 32.8142 234.687 32.8909 235.126C32.958 236.082 33.0442 237.411 33.1688 239.142C33.3988 242.621 33.6959 247.669 34.0409 253.893C34.7309 266.321 35.5455 283.586 36.3793 302.648C37.2131 321.711 37.9798 338.909 38.6027 351.404C38.919 357.618 39.1777 362.665 39.3598 366.164C39.4461 367.895 39.5131 369.243 39.5611 370.18C39.5611 370.619 39.5611 370.973 39.5611 371.222C39.5675 371.339 39.5675 371.458 39.5611 371.575C39.5611 371.575 39.5611 371.461 39.5611 371.222C39.5611 370.983 39.5611 370.629 39.4844 370.18C39.4173 369.224 39.3215 367.904 39.2065 366.174C38.9765 362.694 38.6794 357.647 38.3344 351.413C37.6348 338.986 36.8297 321.73 35.996 302.658C35.1622 283.586 34.3955 266.407 33.763 253.902C33.4467 247.679 33.188 242.641 33.0155 239.142C32.9292 237.411 32.8621 236.063 32.8142 235.126C32.8142 234.677 32.8142 234.333 32.8142 234.084C32.8142 233.836 32.8142 233.731 32.8142 233.731Z" fill="#E0E0E0"/>
<path d="M20.9883 267.783C21.2161 267.933 21.4252 268.11 21.6112 268.309C22.0041 268.663 22.5696 269.189 23.2213 269.848C24.5534 271.167 26.3551 273.041 28.3006 275.144L33.2553 280.555L34.7599 282.18C34.9626 282.367 35.1398 282.579 35.287 282.811C35.0583 282.662 34.8463 282.489 34.6545 282.295C34.2711 281.932 33.6961 281.406 33.054 280.737C31.7315 279.408 29.9394 277.515 28.0226 275.412L23.0296 270.039L21.5154 268.414C21.311 268.229 21.1336 268.017 20.9883 267.783Z" fill="#E0E0E0"/>
<path d="M36.2932 282.477C36.2165 282.4 39.9253 278.529 44.5638 273.873C49.2023 269.217 53.0453 265.422 53.122 265.498C53.1986 265.575 49.4898 269.447 44.8417 274.102C40.1937 278.758 36.3698 282.553 36.2932 282.477Z" fill="#E0E0E0"/>
<path d="M36.2549 311.759C36.4688 311.581 36.7038 311.43 36.9545 311.31L38.9383 310.201C40.6154 309.245 42.9155 307.964 45.4072 306.434C47.8989 304.904 50.1128 303.451 51.7036 302.39L53.6203 301.138C53.8411 300.965 54.0826 300.821 54.3391 300.708C54.1499 300.913 53.9377 301.096 53.7066 301.253C53.2849 301.587 52.662 302.056 51.8857 302.62C50.3236 303.738 48.129 305.239 45.6276 306.759C43.1263 308.279 40.8358 309.56 39.0916 310.44C38.2291 310.87 37.5391 311.214 37.0503 311.443C36.7961 311.574 36.5297 311.68 36.2549 311.759Z" fill="#E0E0E0"/>
<path d="M19.4741 301.511C19.7209 301.587 19.9562 301.696 20.1737 301.836C20.6146 302.065 21.2375 302.419 22.0138 302.859C23.5471 303.729 25.6651 304.962 27.9939 306.338C30.3227 307.715 32.412 308.986 33.9166 309.923L35.6895 311.042C35.917 311.166 36.1265 311.321 36.3125 311.501C36.0679 311.419 35.8333 311.31 35.6129 311.176C35.1816 310.937 34.5491 310.593 33.7824 310.153C32.2395 309.283 30.1215 308.05 27.7927 306.673C25.4639 305.296 23.3746 304.025 21.87 303.088L20.0971 301.989C19.8705 301.855 19.6613 301.695 19.4741 301.511Z" fill="#E0E0E0"/>
<path d="M16.1484 327.351C16.4544 327.469 16.7494 327.613 17.0301 327.781L19.3973 329.081C21.3811 330.19 24.1124 331.749 27.0641 333.489C30.0159 335.229 32.7664 336.816 34.731 337.991L37.0311 339.397C37.3191 339.556 37.5918 339.742 37.8457 339.951C37.5316 339.846 37.2321 339.701 36.9544 339.521L34.5968 338.23C32.613 337.121 29.8913 335.563 26.93 333.823C23.9686 332.083 21.2277 330.487 19.2631 329.32L16.9726 327.915C16.6754 327.762 16.3985 327.573 16.1484 327.351Z" fill="#E0E0E0"/>
<path d="M37.4241 339.511C37.6924 339.278 37.9885 339.079 38.3058 338.919L40.7592 337.427C42.8388 336.156 45.7043 334.406 48.8094 332.38C51.9145 330.353 54.6937 328.46 56.6967 327.074L59.0638 325.439C59.3358 325.214 59.6353 325.025 59.9551 324.875C59.7091 325.126 59.4395 325.354 59.1501 325.554C58.6134 325.984 57.8275 326.577 56.85 327.303C54.9333 328.747 52.1445 330.688 49.0298 332.705C45.9151 334.722 43.0209 336.452 40.9029 337.657C39.8391 338.259 38.9862 338.737 38.3729 339.052C38.0692 339.23 37.7519 339.383 37.4241 339.511Z" fill="#E0E0E0"/>
<path d="M52.6428 356.939H24.6204L33.7727 426H43.5L52.6428 356.939Z" fill="#E0E0E0"/>
<path d="M26.106 365.438C26.106 365.438 26.106 365.533 26.2497 365.677C26.4342 365.891 26.6675 366.059 26.9301 366.164C27.4192 366.331 27.9397 366.385 28.4526 366.322C28.9655 366.259 29.4574 366.081 29.8915 365.801C31.0223 365.18 32.0094 363.956 33.5237 363.411C35.2062 362.873 37.0205 362.91 38.6796 363.516C40.364 364.093 41.9728 364.87 43.4714 365.83C44.7149 366.625 46.0118 367.334 47.3528 367.952C48.2686 368.359 49.236 368.639 50.2278 368.784C50.4977 368.822 50.7699 368.841 51.0425 368.841C51.2245 368.841 51.3204 368.841 51.3204 368.841C49.9947 368.636 48.7044 368.247 47.4869 367.685C46.1707 367.038 44.8909 366.32 43.6535 365.534C42.1352 364.532 40.4962 363.726 38.7755 363.134C37.02 362.5 35.1005 362.479 33.332 363.077C32.5864 363.382 31.8966 363.808 31.2907 364.338C30.7828 364.789 30.2449 365.204 29.6806 365.581C29.2888 365.853 28.842 366.036 28.3718 366.116C27.9016 366.197 27.4193 366.175 26.9589 366.05C26.6379 365.902 26.3484 365.694 26.106 365.438Z" fill="#F5F5F5"/>
<path d="M27.0642 378.153C27.0642 378.153 27.2846 377.866 27.7159 377.416C28.3536 376.788 29.1181 376.303 29.9585 375.992C31.207 375.542 32.5329 375.343 33.859 375.409C35.4937 375.535 37.1194 375.759 38.7274 376.078C40.3724 376.394 42.0554 376.461 43.7205 376.279C45.0794 376.106 46.4042 375.729 47.6498 375.16C48.5039 374.785 49.3138 374.317 50.0648 373.765C50.3467 373.577 50.5986 373.348 50.8123 373.086C49.7754 373.753 48.693 374.347 47.5731 374.864C46.3459 375.359 45.0557 375.68 43.7397 375.82C42.1139 375.979 40.4735 375.898 38.8712 375.581C37.2422 375.259 35.5932 375.049 33.9356 374.95C32.5562 374.905 31.1825 375.146 29.9009 375.657C29.0348 376 28.2652 376.548 27.6584 377.254C27.497 377.448 27.3527 377.656 27.2271 377.875C27.1217 378.067 27.0642 378.143 27.0642 378.153Z" fill="#F5F5F5"/>
<path d="M49.4706 384.959C49.2375 384.783 48.9745 384.651 48.6944 384.567C47.9507 384.286 47.1689 384.119 46.3751 384.07C45.2021 383.992 44.0239 384.06 42.8675 384.271C41.5546 384.481 40.1554 384.835 38.6891 385.15C37.3197 385.47 35.9171 385.628 34.5107 385.619C33.3702 385.588 32.2457 385.345 31.1947 384.902C30.2338 384.445 29.3787 383.794 28.6838 382.99C28.7937 383.261 28.9566 383.508 29.163 383.716C29.6956 384.322 30.3483 384.81 31.0797 385.15C32.155 385.658 33.3219 385.944 34.5107 385.992C35.9516 386.028 37.3912 385.88 38.7945 385.552C40.2896 385.237 41.6696 384.864 42.9538 384.596C44.0799 384.372 45.2272 384.273 46.3751 384.3C47.4297 384.395 48.469 384.617 49.4706 384.959Z" fill="#F5F5F5"/>
<path d="M29.575 394.538C30.4331 394.172 31.3834 394.079 32.2967 394.271C33.2922 394.511 34.2568 394.863 35.1718 395.322C36.3299 395.882 37.5799 396.229 38.8615 396.345C41.2052 396.545 43.5525 396.003 45.57 394.796C46.1533 394.427 46.6961 393.998 47.1896 393.515C47.525 393.152 47.7071 392.942 47.6784 392.923C46.9369 393.496 46.1625 394.026 45.3591 394.51C43.3778 395.6 41.1162 396.08 38.8615 395.886C36.2068 395.733 34.1655 394.156 32.3255 393.974C31.618 393.853 30.8911 393.919 30.2171 394.165C29.7571 394.318 29.5558 394.529 29.575 394.538Z" fill="#F5F5F5"/>
<path d="M31.1373 407.798C31.942 407.817 32.7409 407.657 33.4757 407.329C34.8845 406.861 36.6191 405.79 38.6604 404.978C39.6095 404.597 40.6185 404.387 41.6409 404.356C42.4673 404.356 43.2831 404.543 44.0272 404.901C44.7092 405.264 45.3018 405.773 45.7618 406.393C45.7242 406.176 45.6318 405.972 45.4935 405.8C45.1546 405.308 44.7049 404.902 44.1805 404.615C43.4019 404.186 42.5302 403.953 41.6409 403.936C40.5627 403.938 39.4952 404.149 38.4975 404.557C36.3891 405.389 34.664 406.469 33.3511 407.033C32.0381 407.597 31.1277 407.721 31.1373 407.798Z" fill="#F5F5F5"/>
<path d="M32.5076 413.964C33.0692 414.236 33.6658 414.429 34.2805 414.538C35.7402 414.89 37.223 415.139 38.7177 415.283C40.2112 415.43 41.7129 415.475 43.2124 415.417C43.8393 415.429 44.4649 415.355 45.0717 415.197C45.0717 415.054 42.1966 415.197 38.7656 414.834C35.3347 414.471 32.5459 413.84 32.5076 413.964Z" fill="#F5F5F5"/>
<path d="M426 424.891C426 425.034 330.624 425.14 213.005 425.14C95.3854 425.14 0 425.034 0 424.891C0 424.748 95.3471 424.643 213.005 424.643C330.662 424.643 426 424.757 426 424.891Z" fill="#263238"/>
<path d="M120.37 126.086C120.37 126.086 122.977 110.494 123.6 109.308C124.223 108.123 131.42 100.838 132.273 100.704C133.126 100.57 144.482 96.995 143.85 98.7923C143.217 100.59 135.225 102.941 135.225 102.941L134.468 103.897C134.468 103.897 141.282 101.679 142.968 101.737C144.655 101.794 144.808 103.41 143.591 103.869C142.374 104.327 136.375 106.077 136.145 106.459C135.915 106.842 142.853 104.863 143.697 104.901C144.866 104.949 145.709 106.421 144.521 106.928C143.812 107.215 137.141 108.744 137.141 108.744C139.198 108.475 141.268 108.315 143.342 108.266C144.367 108.543 144.3 109.786 143.15 110.083C142.374 110.283 138.301 110.465 137.266 110.742C137.266 110.742 136.49 111.392 136.518 113.457C136.547 115.522 133.864 121 133.864 121L120.37 126.086Z" fill="#FFBE9D"/>
<path d="M143.84 98.7445C143.383 99.3286 142.817 99.8188 142.173 100.188C141.5 100.64 140.788 101.031 140.045 101.354C139.202 101.67 138.263 101.995 137.285 102.31L135.186 103.018L135.301 102.951C134.104 104.245 132.806 105.444 131.42 106.536C132.486 105.141 133.658 103.83 134.928 102.616V102.568H134.995L137.065 101.842L139.815 100.886C140.541 100.592 141.246 100.247 141.924 99.8535C143.131 99.2129 143.792 98.6776 143.84 98.7445Z" fill="#EB996E"/>
<path d="M295.155 297.323L140.457 281.425C138.19 281.184 136.11 280.057 134.673 278.291C133.237 276.524 132.56 274.262 132.79 271.999L159.557 12.5617C159.893 9.34484 161.495 6.39215 164.01 4.351C166.525 2.30985 169.749 1.34679 172.974 1.67297L320.485 16.8255C323.71 17.1607 326.67 18.7579 328.716 21.2668C330.762 23.7757 331.728 26.9915 331.401 30.2094L304.567 289.647C304.332 291.907 303.21 293.982 301.447 295.42C299.684 296.858 297.422 297.542 295.155 297.323Z" fill="#8893FF"/>
<path opacity="0.4" d="M295.155 297.323L140.457 281.425C138.19 281.184 136.11 280.057 134.673 278.291C133.237 276.524 132.56 274.262 132.79 271.999L159.557 12.5617C159.893 9.34484 161.495 6.39215 164.01 4.351C166.525 2.30985 169.749 1.34679 172.974 1.67297L320.485 16.8255C323.71 17.1607 326.67 18.7579 328.716 21.2668C330.762 23.7757 331.728 26.9915 331.401 30.2094L304.567 289.647C304.332 291.907 303.21 293.982 301.447 295.42C299.684 296.858 297.422 297.542 295.155 297.323Z" fill="black"/>
<path d="M279.544 295.717L124.817 279.829C122.548 279.588 120.466 278.459 119.029 276.691C117.592 274.922 116.917 272.658 117.15 270.393L143.984 10.9557C144.148 9.36181 144.625 7.8158 145.388 6.40593C146.151 4.99606 147.185 3.74997 148.431 2.73881C149.677 1.72765 151.111 0.971245 152.65 0.512795C154.189 0.0543442 155.803 -0.0971688 157.401 0.0669085L304.873 15.1907C306.471 15.3543 308.021 15.8303 309.434 16.5915C310.848 17.3527 312.097 18.3842 313.111 19.6271C314.124 20.8699 314.883 22.2998 315.342 23.8351C315.802 25.3703 315.954 26.9808 315.789 28.5746L288.955 288.022C288.725 290.285 287.606 292.365 285.842 293.807C284.078 295.249 281.814 295.936 279.544 295.717Z" fill="#8893FF"/>
<path d="M200.89 225.1L147.543 219.62C146.269 219.489 145.129 220.413 144.998 221.684L142.836 242.624C142.705 243.895 143.632 245.032 144.906 245.163L198.253 250.643C199.527 250.774 200.667 249.85 200.798 248.579L202.96 227.639C203.091 226.368 202.165 225.231 200.89 225.1Z" fill="#8893FF"/>
<g opacity="0.4">
<path opacity="0.4" d="M200.89 225.1L147.543 219.62C146.269 219.489 145.129 220.413 144.998 221.684L142.836 242.624C142.705 243.895 143.632 245.032 144.906 245.163L198.253 250.643C199.527 250.774 200.667 249.85 200.798 248.579L202.96 227.639C203.091 226.368 202.165 225.231 200.89 225.1Z" fill="black"/>
</g>
<path d="M154.722 29.0709L148.787 86.5567L295.693 101.649L301.628 44.163L154.722 29.0709Z" fill="#FAFAFA"/>
<path d="M295.702 101.651C295.702 101.651 295.702 101.297 295.788 100.628C295.874 99.9586 295.951 98.9548 296.076 97.6546C296.334 95.0352 296.718 91.1921 297.216 86.2305C298.174 76.3169 299.66 61.9674 301.461 44.1668L301.615 44.3581L154.708 29.3203L154.986 29.1004C152.906 49.1763 150.894 68.6307 149.034 86.5843L148.824 86.3166L254.099 97.2531L284.671 100.456L292.865 101.335L294.983 101.565L295.711 101.651C295.711 101.651 295.472 101.651 295.002 101.593L292.913 101.393L284.767 100.59L254.195 97.5208L148.776 86.7946H148.536V86.5651C150.386 68.602 152.37 49.1763 154.459 29.0717V28.8232H154.708L301.653 43.9948H301.826V44.1668C299.909 62.0152 298.423 76.4029 297.379 86.3357C296.852 91.2686 296.421 95.1021 296.162 97.7024C296.018 98.993 295.913 99.9777 295.836 100.647L295.702 101.651Z" fill="#263238"/>
<path d="M177.628 112.673L156.627 110.515C155.532 110.403 154.553 111.197 154.44 112.29L152.277 133.239C152.164 134.332 152.961 135.308 154.056 135.421L175.057 137.579C176.152 137.691 177.132 136.897 177.244 135.804L179.407 114.855C179.52 113.762 178.724 112.785 177.628 112.673Z" fill="#8893FF"/>
<g opacity="0.4">
<path opacity="0.4" d="M177.628 112.673L156.627 110.515C155.532 110.403 154.552 111.197 154.44 112.29L152.277 133.239C152.164 134.332 152.96 135.308 154.055 135.421L175.057 137.579C176.152 137.691 177.131 136.897 177.244 135.804L179.407 114.855C179.52 113.762 178.723 112.785 177.628 112.673Z" fill="black"/>
</g>
<path d="M173.769 112.281L152.768 110.124C151.673 110.011 150.693 110.805 150.581 111.898L148.418 132.848C148.305 133.94 149.101 134.917 150.196 135.029L171.198 137.187C172.293 137.299 173.272 136.505 173.385 135.413L175.548 114.463C175.661 113.37 174.865 112.394 173.769 112.281Z" fill="#263238"/>
<path d="M164.282 118.543L163.218 128.954L160.803 128.705L161.675 120.254L159.596 120.034L159.797 118.122L164.282 118.543Z" fill="white"/>
<path d="M212.441 116.26L191.439 114.102C190.344 113.99 189.365 114.784 189.252 115.877L187.089 136.826C186.976 137.919 187.773 138.895 188.868 139.008L209.869 141.166C210.964 141.278 211.944 140.484 212.056 139.391L214.219 118.442C214.332 117.349 213.536 116.372 212.441 116.26Z" fill="#8893FF"/>
<g opacity="0.4">
<path opacity="0.4" d="M212.44 116.26L191.439 114.102C190.344 113.99 189.365 114.784 189.252 115.877L187.089 136.826C186.976 137.919 187.773 138.895 188.868 139.008L209.869 141.166C210.964 141.278 211.944 140.484 212.056 139.391L214.219 118.442C214.332 117.349 213.536 116.372 212.44 116.26Z" fill="black"/>
</g>
<path d="M208.592 115.859L187.59 113.701C186.495 113.589 185.516 114.383 185.403 115.475L183.24 136.425C183.128 137.518 183.924 138.494 185.019 138.607L206.021 140.764C207.116 140.877 208.095 140.083 208.208 138.99L210.371 118.04C210.483 116.948 209.687 115.971 208.592 115.859Z" fill="#263238"/>
<path d="M201.993 130.933L201.792 132.845L193.934 132.042L194.097 130.483L198.495 127.109C199.511 126.334 199.732 125.818 199.78 125.312C199.866 124.499 199.348 123.964 198.246 123.849C197.831 123.79 197.407 123.835 197.012 123.978C196.618 124.121 196.265 124.359 195.984 124.671L194.346 123.361C194.887 122.773 195.566 122.329 196.322 122.067C197.078 121.805 197.887 121.734 198.678 121.86C200.997 122.099 202.425 123.438 202.223 125.321C202.128 126.334 201.744 127.233 200.153 128.419L197.527 130.426L201.993 130.933Z" fill="white"/>
<path d="M248.546 119.968L227.544 117.81C226.449 117.698 225.47 118.492 225.357 119.585L223.194 140.534C223.082 141.627 223.878 142.603 224.973 142.716L245.975 144.874C247.07 144.986 248.049 144.192 248.162 143.099L250.325 122.15C250.437 121.057 249.641 120.08 248.546 119.968Z" fill="#8893FF"/>
<g opacity="0.4">
<path opacity="0.4" d="M248.546 119.968L227.544 117.81C226.449 117.698 225.47 118.492 225.357 119.585L223.194 140.534C223.082 141.627 223.878 142.604 224.973 142.716L245.975 144.874C247.07 144.986 248.049 144.192 248.162 143.099L250.325 122.15C250.437 121.057 249.641 120.08 248.546 119.968Z" fill="black"/>
</g>
<path d="M244.688 119.567L223.686 117.409C222.591 117.297 221.612 118.091 221.499 119.183L219.336 140.133C219.223 141.226 220.02 142.202 221.115 142.315L242.117 144.472C243.212 144.585 244.191 143.791 244.304 142.698L246.466 121.748C246.579 120.656 245.783 119.679 244.688 119.567Z" fill="#263238"/>
<path d="M238.133 133.409C237.951 135.158 236.437 136.621 233.476 136.325C232.077 136.199 230.745 135.671 229.642 134.805L230.763 133.055C231.566 133.761 232.573 134.196 233.638 134.298C234.846 134.422 235.641 134.011 235.728 133.16C235.814 132.309 235.277 131.831 233.916 131.688L232.814 131.573L232.977 129.986L235.364 127.788L230.936 127.338L231.137 125.426L238.421 126.172L238.258 127.73L235.632 130.158C236.388 130.275 237.07 130.677 237.536 131.283C238.002 131.888 238.216 132.65 238.133 133.409Z" fill="white"/>
<path d="M284.642 123.676L263.64 121.518C262.545 121.406 261.566 122.2 261.453 123.293L259.29 144.242C259.178 145.335 259.974 146.312 261.069 146.424L282.071 148.582C283.166 148.694 284.145 147.9 284.258 146.807L286.421 125.858C286.533 124.765 285.737 123.788 284.642 123.676Z" fill="#8893FF"/>
<g opacity="0.4">
<path opacity="0.4" d="M284.642 123.676L263.64 121.518C262.545 121.406 261.566 122.2 261.453 123.293L259.29 144.242C259.178 145.335 259.974 146.312 261.069 146.424L282.071 148.582C283.166 148.694 284.145 147.9 284.258 146.807L286.421 125.858C286.533 124.765 285.737 123.788 284.642 123.676Z" fill="black"/>
</g>
<path d="M280.87 123.273L259.868 121.115C258.773 121.003 257.794 121.797 257.681 122.89L255.518 143.839C255.405 144.932 256.202 145.909 257.297 146.021L278.298 148.179C279.394 148.291 280.373 147.497 280.485 146.404L282.648 125.455C282.761 124.362 281.965 123.385 280.87 123.273Z" fill="#263238"/>
<path d="M263.437 133.188L263.339 134.139L274.493 135.285L274.591 134.334L263.437 133.188Z" fill="white"/>
<path d="M271.283 129.585C271.247 129.942 271.106 130.281 270.877 130.558C270.648 130.836 270.341 131.039 269.996 131.143C269.651 131.246 269.284 131.246 268.939 131.141C268.595 131.036 268.289 130.831 268.061 130.553C267.833 130.275 267.693 129.935 267.659 129.578C267.624 129.22 267.697 128.86 267.867 128.544C268.037 128.227 268.298 127.968 268.616 127.8C268.934 127.631 269.295 127.56 269.654 127.596C270.134 127.645 270.575 127.881 270.881 128.254C271.186 128.627 271.331 129.106 271.283 129.585Z" fill="white"/>
<path d="M270.276 139.288C270.24 139.646 270.098 139.985 269.869 140.262C269.639 140.54 269.332 140.743 268.987 140.846C268.642 140.949 268.273 140.948 267.929 140.842C267.584 140.736 267.279 140.53 267.051 140.251C266.824 139.972 266.685 139.632 266.652 139.274C266.618 138.916 266.692 138.556 266.864 138.24C267.036 137.924 267.298 137.666 267.617 137.498C267.936 137.331 268.298 137.262 268.657 137.3C269.135 137.35 269.574 137.588 269.878 137.961C270.181 138.333 270.325 138.81 270.276 139.288Z" fill="white"/>
<path d="M173.862 149.16L152.861 147.002C151.766 146.89 150.787 147.684 150.674 148.777L148.511 169.726C148.398 170.819 149.194 171.795 150.29 171.908L171.291 174.066C172.386 174.178 173.365 173.384 173.478 172.291L175.641 151.342C175.754 150.249 174.958 149.272 173.862 149.16Z" fill="#8893FF"/>
<g opacity="0.4">
<path opacity="0.4" d="M173.862 149.16L152.861 147.002C151.766 146.89 150.787 147.684 150.674 148.777L148.511 169.726C148.398 170.819 149.194 171.795 150.29 171.908L171.291 174.066C172.386 174.178 173.365 173.384 173.478 172.291L175.641 151.342C175.754 150.249 174.957 149.272 173.862 149.16Z" fill="black"/>
</g>
<path d="M170.003 148.768L149.002 146.611C147.907 146.498 146.927 147.292 146.815 148.385L144.652 169.335C144.539 170.427 145.335 171.404 146.43 171.516L167.432 173.674C168.527 173.786 169.506 172.992 169.619 171.9L171.782 150.95C171.895 149.857 171.098 148.881 170.003 148.768Z" fill="#263238"/>
<path d="M162.71 163.542L161.014 163.37L160.784 165.549L158.436 165.31L158.666 163.131L153.06 162.547L153.222 160.932L158.81 154.852L161.34 155.119L156.145 160.855L158.944 161.142L159.145 159.23L161.416 159.46L161.215 161.372L162.911 161.544L162.71 163.542Z" fill="white"/>
<path d="M208.675 152.747L187.673 150.589C186.578 150.477 185.599 151.271 185.486 152.364L183.323 173.313C183.21 174.406 184.007 175.382 185.102 175.495L206.103 177.653C207.198 177.765 208.178 176.971 208.29 175.878L210.453 154.929C210.566 153.836 209.77 152.859 208.675 152.747Z" fill="#8893FF"/>
<g opacity="0.4">
<path opacity="0.4" d="M208.674 152.747L187.673 150.589C186.578 150.477 185.599 151.271 185.486 152.364L183.323 173.313C183.21 174.406 184.006 175.382 185.102 175.495L206.103 177.653C207.198 177.765 208.177 176.971 208.29 175.878L210.453 154.929C210.566 153.836 209.77 152.859 208.674 152.747Z" fill="black"/>
</g>
<path d="M204.826 152.346L183.824 150.188C182.729 150.076 181.75 150.87 181.637 151.962L179.474 172.912C179.361 174.005 180.158 174.981 181.253 175.094L202.254 177.251C203.35 177.364 204.329 176.569 204.442 175.477L206.604 154.527C206.717 153.435 205.921 152.458 204.826 152.346Z" fill="#263238"/>
<path d="M197.211 165.999C197.029 167.834 195.505 169.297 192.534 168.991C191.136 168.864 189.805 168.336 188.701 167.471L189.841 165.731C190.643 166.438 191.651 166.87 192.716 166.964C193.924 167.088 194.719 166.668 194.806 165.817C194.892 164.966 194.413 164.412 192.525 164.22L189.861 163.943L191.001 158.207L197.345 158.857L197.154 160.769L192.812 160.32L192.439 162.28L193.291 162.366C196.329 162.653 197.403 164.154 197.211 165.999Z" fill="white"/>
<path d="M244.78 156.455L223.779 154.297C222.683 154.185 221.704 154.979 221.591 156.072L219.429 177.021C219.316 178.114 220.112 179.09 221.207 179.203L242.209 181.361C243.304 181.473 244.283 180.679 244.396 179.586L246.559 158.636C246.672 157.544 245.875 156.567 244.78 156.455Z" fill="#8893FF"/>
<g opacity="0.4">
<path opacity="0.4" d="M244.78 156.455L223.778 154.297C222.683 154.185 221.704 154.979 221.591 156.072L219.428 177.021C219.316 178.114 220.112 179.09 221.207 179.203L242.209 181.361C243.304 181.473 244.283 180.679 244.396 179.586L246.559 158.637C246.671 157.544 245.875 156.567 244.78 156.455Z" fill="black"/>
</g>
<path d="M240.922 156.054L219.92 153.896C218.825 153.784 217.846 154.578 217.733 155.67L215.57 176.62C215.457 177.713 216.254 178.689 217.349 178.802L238.35 180.959C239.446 181.072 240.425 180.278 240.538 179.185L242.7 158.235C242.813 157.143 242.017 156.166 240.922 156.054Z" fill="#263238"/>
<path d="M234.07 169.765C233.849 171.888 231.971 173.044 229.776 172.815C226.901 172.518 225.31 170.54 225.655 167.194C226.029 163.599 228.406 161.821 231.54 162.146C232.556 162.223 233.533 162.573 234.367 163.159L233.293 164.832C232.742 164.404 232.074 164.151 231.377 164.106C229.632 163.934 228.415 164.842 228.137 166.821C228.515 166.54 228.946 166.337 229.403 166.224C229.86 166.111 230.336 166.089 230.802 166.161C231.259 166.166 231.711 166.265 232.128 166.452C232.545 166.64 232.919 166.911 233.226 167.25C233.533 167.588 233.767 167.987 233.912 168.419C234.057 168.852 234.111 169.311 234.07 169.765ZM231.722 169.641C231.746 169.419 231.723 169.194 231.653 168.981C231.584 168.768 231.469 168.573 231.318 168.408C231.166 168.244 230.981 168.113 230.774 168.026C230.568 167.938 230.345 167.896 230.121 167.901C229.901 167.854 229.673 167.853 229.452 167.898C229.232 167.943 229.022 168.033 228.838 168.162C228.654 168.291 228.498 168.457 228.381 168.649C228.264 168.841 228.187 169.055 228.157 169.278C228.061 170.167 228.664 170.884 229.824 171.008C230.038 171.052 230.259 171.051 230.472 171.004C230.685 170.958 230.887 170.867 231.063 170.738C231.239 170.609 231.386 170.445 231.494 170.256C231.603 170.067 231.671 169.858 231.693 169.641H231.722Z" fill="white"/>
<path d="M280.866 160.162L259.865 158.004C258.77 157.892 257.79 158.686 257.678 159.779L255.515 180.728C255.402 181.821 256.198 182.798 257.293 182.91L278.295 185.068C279.39 185.18 280.369 184.386 280.482 183.293L282.645 162.344C282.758 161.251 281.961 160.274 280.866 160.162Z" fill="#8893FF"/>
<g opacity="0.4">
<path opacity="0.4" d="M280.866 160.162L259.865 158.004C258.77 157.892 257.79 158.686 257.678 159.779L255.515 180.728C255.402 181.821 256.198 182.798 257.293 182.91L278.295 185.068C279.39 185.18 280.369 184.386 280.482 183.293L282.645 162.344C282.758 161.251 281.961 160.274 280.866 160.162Z" fill="black"/>
</g>
<path d="M277.018 159.761L256.016 157.603C254.921 157.491 253.942 158.285 253.829 159.377L251.666 180.327C251.553 181.42 252.35 182.396 253.445 182.509L274.446 184.666C275.541 184.779 276.521 183.985 276.633 182.892L278.796 161.942C278.909 160.85 278.113 159.873 277.018 159.761Z" fill="#263238"/>
<path d="M269.337 167.304L260.532 174.23L261.126 174.981L269.93 168.055L269.337 167.304Z" fill="white"/>
<path d="M262.066 166.532L261.323 167.135L268.397 175.813L269.141 175.21L262.066 166.532Z" fill="white"/>
<path d="M170.127 185.355L149.125 183.197C148.03 183.085 147.051 183.879 146.938 184.972L144.775 205.921C144.662 207.014 145.459 207.991 146.554 208.103L167.555 210.261C168.651 210.373 169.63 209.579 169.743 208.486L171.905 187.537C172.018 186.444 171.222 185.467 170.127 185.355Z" fill="#8893FF"/>
<g opacity="0.4">
<path opacity="0.4" d="M170.127 185.355L149.125 183.197C148.03 183.085 147.051 183.879 146.938 184.972L144.775 205.921C144.662 207.014 145.459 207.991 146.554 208.103L167.555 210.261C168.651 210.373 169.63 209.579 169.743 208.486L171.905 187.537C172.018 186.444 171.222 185.467 170.127 185.355Z" fill="black"/>
</g>
<path d="M166.268 184.963L145.266 182.806C144.171 182.693 143.192 183.488 143.079 184.58L140.916 205.53C140.803 206.622 141.6 207.599 142.695 207.711L163.696 209.869C164.791 209.981 165.771 209.187 165.883 208.095L168.046 187.145C168.159 186.053 167.363 185.076 166.268 184.963Z" fill="#263238"/>
<path d="M158.436 191.39L158.273 192.948L153.481 201.38L150.865 201.103L155.465 193.063L152.015 192.709L151.843 194.401L149.696 194.181L150.079 190.539L158.436 191.39Z" fill="white"/>
<path d="M204.939 188.942L183.937 186.784C182.842 186.672 181.863 187.466 181.75 188.559L179.587 209.508C179.474 210.601 180.271 211.578 181.366 211.69L202.367 213.848C203.463 213.96 204.442 213.166 204.555 212.073L206.717 191.124C206.83 190.031 206.034 189.054 204.939 188.942Z" fill="#8893FF"/>
<g opacity="0.4">
<path opacity="0.4" d="M204.939 188.942L183.937 186.784C182.842 186.672 181.863 187.466 181.75 188.559L179.587 209.508C179.474 210.601 180.271 211.578 181.366 211.69L202.367 213.848C203.463 213.96 204.442 213.166 204.555 212.073L206.717 191.124C206.83 190.031 206.034 189.054 204.939 188.942Z" fill="black"/>
</g>
<path d="M201.09 188.541L180.089 186.383C178.993 186.271 178.014 187.065 177.901 188.157L175.739 209.107C175.626 210.2 176.422 211.176 177.517 211.289L198.519 213.446C199.614 213.559 200.593 212.765 200.706 211.672L202.869 190.722C202.982 189.63 202.185 188.653 201.09 188.541Z" fill="#263238"/>
<path d="M194.298 202.565C194.096 204.477 192.218 205.577 189.573 205.299C186.928 205.022 185.327 203.617 185.529 201.667C185.574 201.148 185.772 200.655 186.098 200.248C186.423 199.842 186.862 199.54 187.359 199.382C187.011 199.124 186.738 198.778 186.57 198.38C186.401 197.981 186.343 197.545 186.401 197.116C186.592 195.29 188.318 194.325 190.704 194.564C193.09 194.803 194.614 196.122 194.432 197.948C194.393 198.381 194.238 198.796 193.984 199.149C193.729 199.502 193.384 199.781 192.985 199.955C193.437 200.213 193.803 200.598 194.036 201.063C194.27 201.527 194.361 202.05 194.298 202.565ZM191.863 202.24C191.959 201.284 191.26 200.682 190.062 200.558C188.864 200.433 188.068 200.921 187.973 201.839C187.877 202.757 188.557 203.416 189.755 203.54C190.953 203.665 191.777 203.12 191.902 202.202L191.863 202.24ZM188.758 197.46C188.672 198.244 189.247 198.799 190.225 198.904C191.202 199.009 191.911 198.579 191.998 197.795C192.084 197.011 191.48 196.418 190.493 196.323C189.506 196.227 188.835 196.619 188.758 197.432V197.46Z" fill="white"/>
<path d="M241.044 192.65L220.043 190.492C218.948 190.38 217.968 191.174 217.856 192.267L215.693 213.216C215.58 214.309 216.376 215.286 217.471 215.398L238.473 217.556C239.568 217.668 240.547 216.874 240.66 215.781L242.823 194.832C242.936 193.739 242.139 192.762 241.044 192.65Z" fill="#8893FF"/>
<g opacity="0.4">
<path opacity="0.4" d="M241.044 192.65L220.043 190.492C218.948 190.38 217.968 191.174 217.856 192.267L215.693 213.216C215.58 214.309 216.376 215.286 217.471 215.398L238.473 217.556C239.568 217.668 240.547 216.874 240.66 215.781L242.823 194.832C242.936 193.739 242.139 192.762 241.044 192.65Z" fill="black"/>
</g>
<path d="M236.483 190.573L215.582 188.467C214.492 188.357 213.519 189.15 213.409 190.237L211.298 211.087C211.187 212.174 211.982 213.144 213.072 213.254L233.973 215.36C235.063 215.47 236.036 214.678 236.146 213.591L238.257 192.741C238.367 191.653 237.573 190.683 236.483 190.573Z" fill="#263238"/>
<path d="M230.236 203.789C229.862 207.384 227.505 209.162 224.352 208.837C223.342 208.763 222.371 208.416 221.544 207.833L222.617 206.16C223.167 206.589 223.836 206.84 224.534 206.877C226.259 207.049 227.495 206.141 227.773 204.152C227.392 204.435 226.959 204.64 226.499 204.755C226.038 204.87 225.559 204.892 225.09 204.821C224.634 204.813 224.186 204.711 223.771 204.522C223.357 204.333 222.986 204.061 222.681 203.723C222.377 203.385 222.145 202.988 222 202.557C221.856 202.126 221.802 201.67 221.841 201.217C222.061 199.095 223.94 197.938 226.144 198.168C229.01 198.464 230.591 200.443 230.236 203.789ZM227.735 201.705C227.821 200.816 227.217 200.099 226.077 199.975C225.861 199.933 225.64 199.937 225.426 199.986C225.212 200.035 225.01 200.128 224.835 200.26C224.659 200.391 224.513 200.558 224.406 200.749C224.299 200.94 224.233 201.152 224.213 201.37C224.193 201.588 224.219 201.808 224.289 202.015C224.359 202.223 224.472 202.413 224.621 202.574C224.769 202.736 224.95 202.864 225.151 202.952C225.352 203.039 225.57 203.083 225.789 203.082C226.009 203.128 226.236 203.129 226.457 203.084C226.677 203.039 226.885 202.949 227.069 202.82C227.253 202.691 227.407 202.525 227.524 202.333C227.64 202.141 227.715 201.927 227.745 201.705H227.735Z" fill="white"/>
<path d="M277.131 196.357L256.129 194.199C255.034 194.087 254.055 194.881 253.942 195.974L251.779 216.923C251.666 218.016 252.463 218.993 253.558 219.105L274.559 221.263C275.655 221.375 276.634 220.581 276.746 219.488L278.909 198.539C279.022 197.446 278.226 196.469 277.131 196.357Z" fill="#8893FF"/>
<g opacity="0.4">
<path opacity="0.4" d="M277.131 196.357L256.129 194.199C255.034 194.087 254.055 194.881 253.942 195.974L251.779 216.923C251.666 218.016 252.463 218.993 253.558 219.105L274.559 221.263C275.654 221.375 276.634 220.581 276.746 219.488L278.909 198.539C279.022 197.446 278.226 196.469 277.131 196.357Z" fill="black"/>
</g>
<path d="M273.282 195.956L252.28 193.798C251.185 193.686 250.206 194.48 250.093 195.573L247.931 216.522C247.818 217.615 248.614 218.591 249.709 218.704L270.711 220.862C271.806 220.974 272.785 220.18 272.898 219.087L275.061 198.137C275.174 197.045 274.377 196.068 273.282 195.956Z" fill="#263238"/>
<path d="M255.979 206.304L255.881 207.255L267.035 208.401L267.133 207.45L255.979 206.304Z" fill="white"/>
<path d="M237.267 229.155L216.265 226.997C215.17 226.885 214.191 227.679 214.078 228.772L211.915 249.721C211.802 250.814 212.599 251.791 213.694 251.903L234.695 254.061C235.79 254.173 236.77 253.379 236.882 252.286L239.045 231.337C239.158 230.244 238.362 229.267 237.267 229.155Z" fill="#8893FF"/>
<g opacity="0.4">
<path opacity="0.4" d="M237.267 229.155L216.265 226.997C215.17 226.885 214.191 227.679 214.078 228.772L211.915 249.721C211.802 250.814 212.599 251.791 213.694 251.903L234.695 254.061C235.79 254.173 236.77 253.379 236.882 252.286L239.045 231.337C239.158 230.244 238.362 229.267 237.267 229.155Z" fill="black"/>
</g>
<path d="M233.418 228.754L212.416 226.596C211.321 226.484 210.342 227.278 210.229 228.371L208.066 249.32C207.954 250.413 208.75 251.389 209.845 251.502L230.847 253.659C231.942 253.772 232.921 252.978 233.034 251.885L235.197 230.935C235.31 229.843 234.513 228.866 233.418 228.754Z" fill="#263238"/>
<path d="M273.372 232.863L252.371 230.705C251.275 230.593 250.296 231.387 250.183 232.48L248.021 253.429C247.908 254.522 248.704 255.499 249.799 255.611L270.801 257.769C271.896 257.881 272.875 257.087 272.988 255.994L275.151 235.045C275.264 233.952 274.467 232.975 273.372 232.863Z" fill="#8893FF"/>
<g opacity="0.4">
<path opacity="0.4" d="M273.372 232.863L252.371 230.705C251.275 230.593 250.296 231.387 250.183 232.48L248.021 253.429C247.908 254.522 248.704 255.499 249.799 255.611L270.801 257.769C271.896 257.881 272.875 257.087 272.988 255.994L275.151 235.045C275.264 233.952 274.467 232.975 273.372 232.863Z" fill="black"/>
</g>
<path d="M269.514 232.462L248.512 230.304C247.417 230.192 246.438 230.986 246.325 232.079L244.162 253.028C244.05 254.121 244.846 255.097 245.941 255.21L266.943 257.367C268.038 257.48 269.017 256.686 269.13 255.593L271.293 234.644C271.405 233.551 270.609 232.574 269.514 232.462Z" fill="#455A64"/>
<path d="M252.355 241.451L252.257 242.402L263.411 243.548L263.509 242.597L252.355 241.451Z" fill="white"/>
<path d="M251.915 245.678L251.816 246.629L262.97 247.775L263.068 246.824L251.915 245.678Z" fill="white"/>
<path d="M196.128 224.608L140.616 218.905C139.3 218.77 138.123 219.725 137.988 221.038L135.842 241.826C135.706 243.139 136.663 244.313 137.979 244.448L193.491 250.151C194.807 250.286 195.984 249.332 196.12 248.019L198.266 227.231C198.401 225.917 197.444 224.743 196.128 224.608Z" fill="#263238"/>
<path d="M164.799 233.807C165.154 230.375 167.262 228.635 169.821 228.893C172.38 229.152 174.076 231.293 173.722 234.725C173.367 238.157 171.278 239.897 168.71 239.629C166.141 239.362 164.445 237.23 164.799 233.807ZM171.297 234.476C171.546 232.115 170.808 231.054 169.61 230.93C168.412 230.805 167.483 231.694 167.243 234.056C167.004 236.417 167.732 237.478 168.92 237.602C170.109 237.727 171.058 236.828 171.297 234.476Z" fill="white"/>
<path d="M221.797 234.523L220.483 245.632L221.435 245.744L222.749 234.636L221.797 234.523Z" fill="white"/>
<path d="M216.1 239.091L216.001 240.042L227.155 241.188L227.253 240.237L216.1 239.091Z" fill="white"/>
<path d="M210.877 64.1758L209.277 79.6916L208.539 79.6151L210.111 64.7876L206.201 64.3861L206.268 63.6978L210.877 64.1758Z" fill="#263238"/>
<path d="M223.662 80.4755L223.585 81.1638L213.043 80.0835L213.101 79.5482L220.461 73.535C222.569 71.8237 223.077 70.7339 223.211 69.472C223.422 67.407 222.119 65.9348 219.378 65.648C218.516 65.4934 217.631 65.5371 216.789 65.7756C215.947 66.0142 215.171 66.4414 214.519 67.0247L214.059 66.4893C214.793 65.8516 215.658 65.3838 216.595 65.1193C217.531 64.8548 218.514 64.8003 219.474 64.9597C222.445 65.2656 224.179 66.9864 223.921 69.4911C223.767 70.9633 223.173 72.1966 220.911 74.0225L214.203 79.5004L223.662 80.4755Z" fill="#263238"/>
<path d="M235.987 78.0855C235.718 80.6667 233.715 82.2919 230.294 81.9095C229.286 81.8555 228.301 81.586 227.407 81.1192C226.512 80.6524 225.729 79.9992 225.109 79.204L225.569 78.7165C226.139 79.4542 226.863 80.0601 227.69 80.4925C228.517 80.9248 229.428 81.1734 230.361 81.2212C233.332 81.5271 235.038 80.2652 235.277 77.9899C235.517 75.7146 234.146 74.1659 230.85 73.7931L229.987 73.6975L230.045 73.1717L235.536 67.3688L226.959 66.4893L227.026 65.801L236.609 66.757L236.552 67.2828L231.032 73.1048C234.635 73.5063 236.255 75.4948 235.987 78.0855Z" fill="#263238"/>
<path d="M251.32 79.4812L247.937 79.1371L247.477 83.6207L246.739 83.5442L247.199 79.0606L238.267 78.1046L238.325 77.5693L248.014 67.952L248.876 68.038L239.293 77.5406L247.257 78.3627L247.659 74.4145L248.397 74.491L247.985 78.4296L251.368 78.7834L251.32 79.4812Z" fill="#263238"/>
<path d="M254.55 83.6685C254.505 83.9463 254.431 84.2187 254.329 84.4811L253.218 87.3491L252.643 87.2917L253.649 84.2995C253.456 84.2678 253.283 84.1608 253.169 84.0022C253.055 83.8435 253.009 83.6461 253.04 83.4534C253.072 83.2607 253.179 83.0885 253.338 82.9747C253.497 82.8608 253.695 82.8146 253.888 82.8463C254.084 82.8704 254.263 82.9697 254.387 83.1233C254.51 83.2769 254.569 83.4725 254.55 83.6685Z" fill="#263238"/>
<path d="M269.96 81.4028L266.587 81.0586L266.127 85.5327L265.389 85.4562L265.849 80.9822L256.917 80.0262L256.974 79.4908L266.654 69.9022L267.516 69.9978L257.933 79.5004L265.897 80.313L266.299 76.3647L267.037 76.4412L266.654 80.3894L270.037 80.7336L269.96 81.4028Z" fill="#263238"/>
<path d="M281.518 82.6838C281.25 85.2076 279.295 86.9762 275.768 86.6129C274.765 86.5555 273.785 86.2844 272.896 85.8177C272.006 85.351 271.228 84.6997 270.612 83.9075L271.091 83.4199C271.658 84.1605 272.381 84.7685 273.209 85.2011C274.037 85.6338 274.949 85.8807 275.883 85.9246C278.921 86.2401 280.579 84.7966 280.809 82.5978C281.058 80.2078 279.774 78.64 275.327 78.1811L272.308 77.8752L273.842 70.6383L281.863 71.47L281.796 72.1583L274.388 71.3935L273.113 77.2633L275.509 77.5119C280.263 77.9995 281.796 79.9306 281.518 82.6838Z" fill="#263238"/>
<path d="M111.524 400.618L105.429 423.084L125.229 424.891L129.388 403.496L111.524 400.618Z" fill="#8893FF"/>
<path d="M125.775 423.065C124.816 423.134 123.852 423.102 122.9 422.97C121.117 422.826 118.664 422.549 115.952 422.205L109.033 421.249C108.06 421.176 107.098 421.009 106.157 420.752C107.117 420.697 108.08 420.735 109.033 420.866C110.815 421.01 113.268 421.287 115.981 421.631L122.9 422.587C123.87 422.665 124.832 422.825 125.775 423.065Z" fill="#263238"/>
<g opacity="0.6">
<path opacity="0.6" d="M105.429 423.084L125.229 424.891L125.555 423.247L106.004 420.761L105.448 422.864" fill="white"/>
</g>
<path d="M115.233 422.09C116.346 416.318 117.753 410.607 119.45 404.978C118.962 407.877 118.323 410.749 117.533 413.582C116.914 416.456 116.147 419.296 115.233 422.09Z" fill="#263238"/>
<path d="M124.711 422.922C125.022 421.546 125.022 420.119 124.711 418.744C124.364 417.267 123.614 415.914 122.545 414.834C121.213 413.537 119.474 412.737 117.619 412.568C115.768 412.378 113.905 412.801 112.32 413.773C111.033 414.588 109.972 415.712 109.234 417.042C108.577 418.291 108.152 419.648 107.978 421.048C107.966 420.95 107.966 420.85 107.978 420.752C107.975 420.467 107.991 420.183 108.026 419.901C108.164 418.848 108.489 417.829 108.985 416.889C109.712 415.477 110.796 414.278 112.128 413.41C113.788 412.363 115.753 411.905 117.706 412.109C119.664 412.287 121.498 413.143 122.89 414.528C123.993 415.677 124.75 417.111 125.076 418.668C125.29 419.708 125.29 420.782 125.076 421.822C125.014 422.102 124.931 422.377 124.826 422.645C124.801 422.742 124.762 422.835 124.711 422.922Z" fill="#263238"/>
<path d="M193.215 398.056L192.036 415.752C192.036 415.752 209.689 421.593 209.795 424.881L175.294 425.13L175.993 397.483L193.215 398.056Z" fill="#8893FF"/>
<g opacity="0.6">
<path opacity="0.6" d="M181.417 413.945C181.082 414.037 180.793 414.248 180.604 414.539C180.415 414.83 180.34 415.18 180.392 415.522C180.47 415.861 180.676 416.156 180.967 416.347C181.258 416.537 181.612 416.608 181.954 416.545C182.308 416.447 182.613 416.221 182.811 415.913C183.009 415.604 183.086 415.234 183.027 414.872C182.909 414.529 182.662 414.246 182.339 414.08C182.016 413.914 181.641 413.88 181.293 413.983" fill="white"/>
</g>
<g opacity="0.6">
<path opacity="0.6" d="M175.294 425.149L175.476 422.358L208.693 423.314C209.044 423.494 209.344 423.759 209.566 424.085C209.789 424.41 209.927 424.786 209.967 425.178L175.294 425.149Z" fill="white"/>
</g>
<path d="M192.601 415.599C192.601 415.771 191.749 415.819 190.896 416.335C190.043 416.851 189.592 417.539 189.439 417.473C189.286 417.406 189.563 416.44 190.598 415.828C191.634 415.216 192.64 415.446 192.601 415.599Z" fill="#263238"/>
<path d="M196.166 417.205C196.166 417.367 195.467 417.626 194.873 418.323C194.278 419.021 194.087 419.757 193.914 419.748C193.742 419.738 193.665 418.792 194.422 417.931C195.179 417.071 196.176 417.042 196.166 417.205Z" fill="#263238"/>
<path d="M198.093 421.583C197.94 421.583 197.729 420.761 198.189 419.862C198.649 418.964 199.454 418.61 199.521 418.754C199.588 418.897 199.08 419.375 198.716 420.121C198.352 420.866 198.265 421.574 198.093 421.583Z" fill="#263238"/>
<path d="M192.419 411.536C192.343 411.689 191.576 411.431 190.627 411.469C189.679 411.507 188.921 411.784 188.835 411.631C188.749 411.478 189.487 410.914 190.608 410.886C191.729 410.857 192.506 411.412 192.419 411.536Z" fill="#263238"/>
<g opacity="0.3">
<path opacity="0.3" d="M192.975 401.565L192.774 404.72L175.83 404.05L175.888 401.202L192.975 401.565Z" fill="black"/>
</g>
<path d="M192.592 407.96C192.022 408.095 191.427 408.075 190.867 407.903C190.247 407.772 189.645 407.567 189.075 407.291C188.742 407.131 188.421 406.946 188.116 406.737C187.924 406.627 187.752 406.485 187.608 406.316C187.5 406.194 187.437 406.038 187.428 405.875C187.42 405.712 187.466 405.551 187.561 405.418C187.65 405.305 187.763 405.214 187.893 405.151C188.022 405.088 188.164 405.055 188.308 405.054C188.527 405.059 188.744 405.097 188.95 405.169C189.317 405.268 189.673 405.402 190.014 405.571C190.59 405.848 191.117 406.216 191.576 406.66C192.352 407.425 192.611 408.056 192.534 408.085C192.458 408.113 192.084 407.607 191.289 406.966C190.826 406.598 190.317 406.293 189.774 406.058C189.465 405.919 189.145 405.807 188.816 405.723C188.452 405.618 188.145 405.599 188.04 405.723C187.934 405.848 188.04 405.809 188.04 405.915C188.15 406.035 188.276 406.141 188.414 406.23C188.714 406.434 189.011 406.616 189.305 406.775C189.832 407.055 190.384 407.285 190.953 407.463C191.509 407.595 192.057 407.761 192.592 407.96Z" fill="#263238"/>
<path d="M192.362 408.199C192.057 407.693 191.917 407.106 191.959 406.517C191.941 405.508 192.207 404.515 192.726 403.649C192.825 403.424 192.98 403.229 193.176 403.081C193.372 402.934 193.604 402.84 193.847 402.808C194.002 402.814 194.152 402.865 194.278 402.955C194.404 403.045 194.501 403.17 194.556 403.314C194.639 403.516 194.693 403.729 194.719 403.945C194.779 404.462 194.737 404.986 194.594 405.486C194.45 405.986 194.21 406.454 193.886 406.861C193.186 407.741 192.477 407.913 192.467 407.817C192.458 407.721 193.014 407.425 193.55 406.584C193.862 406.101 194.065 405.556 194.144 404.987C194.192 404.654 194.192 404.316 194.144 403.984C194.144 403.62 193.972 403.324 193.838 403.353C193.704 403.381 193.368 403.611 193.215 403.897C193.037 404.204 192.884 404.524 192.755 404.853C192.548 405.4 192.419 405.973 192.371 406.555C192.295 407.54 192.458 408.171 192.362 408.199Z" fill="#263238"/>
<path d="M118.405 122.396C118.405 122.396 114.658 142.758 111.697 155.081C109.359 164.641 103.321 182.595 114.256 187.805C125.191 193.015 139.854 171.974 139.854 171.974L146.092 124.04C141.751 124.853 136.825 129.881 131.583 137.271L132.541 119.107L118.405 122.396Z" fill="#455A64"/>
<path d="M268.887 152.481L263.137 155.215L257.837 146.927L260.932 140.531C261.23 139.938 261.546 139.279 261.891 138.514C262.274 137.618 262.504 136.665 262.571 135.694C262.705 134.497 262.676 133.288 262.485 132.099C262.197 131.028 263.328 130.187 264.095 130.78C264.862 131.373 265.724 134.317 265.159 137.845C264.593 141.372 268.695 137.634 270.219 136.296C271.743 134.957 276.64 131.057 277.416 131.21C278.537 131.43 278.509 132.711 276.956 134.002C275.404 135.292 271.024 139.527 271.743 140.311C272.641 140.412 273.485 140.789 274.158 141.391C274.831 141.992 275.3 142.787 275.499 143.667C275.883 145.397 276.199 147.796 275.222 148.59C273.196 150.021 271.08 151.321 268.887 152.481Z" fill="#FFBE9D"/>
<path d="M157.401 75.2175L157.248 125.034L178.657 126.086L179.28 113.973C179.28 113.973 186.89 115.484 188.864 108.429C190.119 103.926 189.822 69.1183 189.822 69.1183L157.401 75.2175Z" fill="#FFBE9D"/>
<path d="M194.633 73.9938C193.186 76.967 186.315 82.4161 186.315 82.4161L183.21 90.7141C180.517 88.611 176.894 88.7352 176.214 93.4579C175.715 96.8803 179.97 97.5686 179.97 97.5686C177.488 101.775 175.811 105.217 172.208 109.174C168.298 113.515 166.113 113.954 161.877 114.021H157.2C157.2 114.021 147.616 106.048 149.533 85.0642C151.45 64.0802 170.339 70.2081 174.853 64.9884C182.203 56.4227 199.454 64.0611 194.633 73.9938Z" fill="#263238"/>
<path d="M150.597 102.607H151.191C151.761 102.597 152.329 102.532 152.887 102.416C154.936 101.95 156.828 100.962 158.379 99.5475C160.602 97.37 162.476 94.8648 163.937 92.1195C164.895 90.6186 165.796 89.022 166.946 87.4829C168.105 85.8654 169.527 84.4533 171.153 83.3052C172.827 82.2241 174.675 81.4382 176.616 80.9821C178.475 80.5042 180.306 80.2078 182.031 79.8732C185.481 79.2327 188.576 78.2767 190.656 76.6419C192.358 75.3999 193.591 73.6215 194.154 71.5943C194.29 71.0436 194.361 70.4789 194.365 69.9118C194.365 69.5198 194.365 69.3095 194.365 69.3095C194.365 69.3095 194.365 69.5198 194.432 69.9118C194.445 70.4839 194.387 71.0554 194.259 71.6134C193.715 73.6726 192.485 75.4861 190.771 76.7567C188.644 78.4201 185.519 79.4048 182.069 80.0453C180.335 80.3894 178.514 80.6858 176.664 81.1733C174.745 81.6282 172.918 82.4039 171.259 83.4677C169.657 84.6101 168.252 86.0049 167.1 87.5976C165.959 89.1272 165.01 90.7142 164.1 92.2151C162.621 94.9694 160.724 97.4784 158.474 99.6527C156.904 101.081 154.983 102.071 152.906 102.521C152.341 102.631 151.767 102.685 151.191 102.683C150.798 102.635 150.597 102.607 150.597 102.607Z" fill="#455A64"/>
<path d="M149.495 85.5423C149.495 85.5423 149.83 85.4084 150.453 85.1981C151.407 84.8634 152.393 84.6295 153.395 84.5002C154.991 84.2576 156.621 84.597 157.986 85.4562C158.407 85.736 158.769 86.0963 159.051 86.5163C159.332 86.9364 159.527 87.4079 159.624 87.9036C159.739 88.463 159.711 89.0421 159.544 89.5881C159.376 90.1341 159.075 90.6297 158.666 91.0297C158.201 91.438 157.608 91.6743 156.989 91.6989C156.345 91.7084 155.712 91.5396 155.159 91.2113C153.985 90.5168 153.111 89.4133 152.705 88.1139C152.244 86.7446 152.181 85.2729 152.523 83.8693C152.876 82.3861 153.683 81.0495 154.833 80.0453C156.036 78.9697 157.548 78.3005 159.155 78.1333C160.819 78.0296 162.488 78.2438 164.071 78.7643C165.7 79.2859 167.366 79.6853 169.055 79.9593C170.798 80.1887 172.563 80.1887 174.307 79.9593C176.051 79.7521 177.754 79.2815 179.357 78.5635C180.141 78.2484 180.848 77.7697 181.432 77.1597C182.015 76.5497 182.461 75.8223 182.74 75.0263C182.968 74.2469 182.985 73.421 182.788 72.6331C182.591 71.8452 182.187 71.1238 181.619 70.5427C181.041 70.0215 180.321 69.6825 179.55 69.5685C178.779 69.4546 177.992 69.5707 177.287 69.9022C176.601 70.2027 176.039 70.7292 175.696 71.3936C175.369 72.0467 175.249 72.7835 175.351 73.5063C175.449 74.1983 175.694 74.8615 176.069 75.4517C176.444 76.0418 176.941 76.5454 177.527 76.9288C178.654 77.6187 179.951 77.9828 181.274 77.9804C182.493 78.0022 183.708 77.8213 184.868 77.445C186.877 76.8142 188.703 75.7052 190.187 74.2137C191.315 73.105 192.246 71.8117 192.937 70.3898C193.373 69.472 193.711 68.5106 193.943 67.5218C194.068 66.8526 194.154 66.4989 194.154 66.4989L193.982 67.5313C193.769 68.5196 193.448 69.4814 193.023 70.3993C192.347 71.8474 191.419 73.1646 190.282 74.2902C188.795 75.8047 186.959 76.9336 184.935 77.5788C183.759 77.9577 182.529 78.1449 181.293 78.1333C179.941 78.1418 178.614 77.7743 177.46 77.0722C176.851 76.6779 176.335 76.1582 175.944 75.5481C175.554 74.9379 175.3 74.2515 175.198 73.535C175.085 72.7769 175.208 72.0024 175.552 71.3171C175.916 70.6169 176.507 70.0607 177.23 69.7397C177.968 69.3903 178.794 69.2675 179.603 69.3866C180.411 69.5057 181.166 69.8615 181.772 70.4089C182.365 71.0131 182.786 71.7632 182.993 72.5828C183.2 73.4023 183.185 74.262 182.951 75.0741C182.663 75.8976 182.203 76.6507 181.602 77.2835C181.001 77.9164 180.271 78.4146 179.462 78.7451C177.84 79.4684 176.118 79.9453 174.354 80.16C172.592 80.3847 170.808 80.3847 169.045 80.16C167.351 79.8837 165.679 79.4843 164.042 78.965C162.48 78.4532 160.835 78.236 159.193 78.3245C158.079 78.4429 157.006 78.809 156.052 79.3958C155.099 79.9826 154.289 80.7753 153.683 81.7154C153.077 82.6555 152.69 83.7192 152.551 84.8282C152.412 85.9371 152.523 87.0632 152.878 88.1234C153.272 89.3846 154.118 90.4566 155.254 91.1348C155.781 91.4496 156.384 91.6148 156.999 91.6128C157.586 91.5909 158.148 91.3681 158.589 90.9819C158.978 90.5952 159.264 90.1188 159.423 89.595C159.582 89.0713 159.608 88.5165 159.5 87.98C159.307 87.0149 158.743 86.1637 157.928 85.6092C156.584 84.7587 154.979 84.4193 153.405 84.6532C152.407 84.7731 151.425 84.9941 150.472 85.3128L149.495 85.5423Z" fill="#455A64"/>
<path d="M135.368 221.159L106.848 408.027L130.538 411.029L163.966 254.285L172.38 412.081L198.055 411.631L193.8 221.599L135.368 221.159Z" fill="#263238"/>
<path d="M171.92 412.568V412.109L163.697 257.927L130.912 411.565L106.301 408.448L134.956 220.729L194.269 221.169L198.543 412.157L171.92 412.568ZM164.253 250.652L172.878 411.603L197.614 411.173L193.378 222.077L135.78 221.685L107.394 407.616L130.155 410.484L164.253 250.652Z" fill="#263238"/>
<path d="M190.426 411.335C190.282 411.335 190.177 373.898 190.177 327.724C190.177 281.549 190.282 244.094 190.426 244.094C190.57 244.094 190.675 281.53 190.675 327.724C190.675 373.918 190.56 411.335 190.426 411.335Z" fill="#455A64"/>
<path d="M125.325 410.656C125.331 410.521 125.35 410.387 125.382 410.255C125.382 409.958 125.507 409.566 125.603 409.069C125.804 408.008 126.101 406.479 126.475 404.528C127.28 400.561 128.391 394.873 129.839 387.846C132.714 373.765 136.787 354.339 141.463 332.924C146.14 311.51 150.539 292.142 153.798 278.156C155.436 271.177 156.768 265.527 157.698 261.588C158.168 259.676 158.541 258.147 158.791 257.095C158.915 256.598 159.021 256.216 159.088 255.929C159.12 255.796 159.162 255.665 159.212 255.537C159.212 255.537 159.212 255.671 159.136 255.938C159.059 256.206 159.001 256.617 158.896 257.114C158.656 258.175 158.321 259.695 157.89 261.636C156.998 265.575 155.724 271.196 154.143 278.232C150.97 292.247 146.629 311.615 141.952 333.03C137.275 354.444 133.145 373.86 130.184 387.913C128.698 394.93 127.5 400.609 126.666 404.567C126.254 406.479 125.928 408.027 125.708 409.088L125.44 410.264C125.415 410.399 125.376 410.53 125.325 410.656Z" fill="#455A64"/>
<path d="M172.38 254.122C172.027 254.216 171.663 254.265 171.297 254.265L168.336 254.476C165.835 254.638 162.375 254.81 158.58 255.183C154.785 255.556 151.363 256.072 148.881 256.397L145.939 256.77C145.579 256.839 145.212 256.862 144.846 256.837C145.19 256.712 145.547 256.625 145.91 256.579C146.591 256.436 147.587 256.254 148.785 256.044C151.258 255.633 154.679 255.088 158.493 254.686C162.308 254.285 165.777 254.199 168.278 254.122C169.534 254.122 170.55 254.074 171.249 254.074C171.627 254.049 172.006 254.065 172.38 254.122Z" fill="#455A64"/>
<path d="M194.298 241.99C194.064 242.093 193.814 242.154 193.56 242.172C192.875 242.271 192.181 242.303 191.49 242.268C189.189 242.145 186.972 241.365 185.103 240.021C183.234 238.677 181.792 236.825 180.948 234.687C180.693 234.045 180.503 233.378 180.382 232.698C180.296 232.22 180.287 231.953 180.325 231.943C180.363 231.933 180.574 232.995 181.283 234.543C182.202 236.566 183.628 238.317 185.423 239.629C187.237 240.91 189.355 241.698 191.566 241.914C193.215 242.086 194.279 241.895 194.298 241.99Z" fill="#455A64"/>
<path d="M130.49 224.83L196.119 224.62L192.525 181.419C192.132 171.534 192.189 170.348 191.94 161.228C191.94 161.228 201.255 172.461 208.587 180.348C210.747 182.665 213.591 184.236 216.707 184.833C219.822 185.429 223.047 185.02 225.914 183.665L264.248 156.984L257.07 138.657L222.234 159.928C220.633 158.972 207.073 139.632 197.7 130.216C191.699 124.189 183.605 120.694 175.092 120.455C168.028 120.29 160.96 120.574 153.932 121.306C148.812 121.853 144.043 124.162 140.445 127.836C136.848 131.511 134.646 136.321 134.218 141.439C133.538 149.517 134.084 158.896 134.084 174.832L130.49 224.83Z" fill="#455A64"/>
<path d="M133.576 145.808C133.576 145.808 133.576 145.99 133.576 146.315C133.576 146.64 133.576 147.185 133.576 147.758C133.576 149.02 133.576 150.837 133.576 153.083C133.576 157.576 133.777 163.771 133.979 170.626C134.18 177.48 134.209 183.694 134.036 188.178C133.96 190.424 133.854 192.241 133.749 193.493C133.749 194.076 133.662 194.554 133.634 194.937C133.605 195.319 133.576 195.434 133.576 195.434C133.576 195.434 133.576 195.262 133.576 194.937C133.576 194.611 133.624 194.067 133.653 193.493C133.739 192.241 133.816 190.424 133.873 188.178C134.007 183.684 133.95 177.48 133.758 170.626C133.567 163.771 133.404 157.576 133.413 153.083C133.413 150.837 133.413 149.02 133.48 147.758C133.48 147.175 133.48 146.707 133.528 146.315C133.576 145.923 133.576 145.808 133.576 145.808Z" fill="#263238"/>
<path d="M220.796 166.113C220.808 165.81 220.853 165.508 220.931 165.215C221.046 164.66 221.208 163.895 221.41 163.064C221.611 162.232 221.793 161.467 221.937 160.932C221.993 160.632 222.087 160.339 222.215 160.062C222.203 160.366 222.155 160.668 222.071 160.961C221.966 161.515 221.793 162.27 221.601 163.111C221.41 163.953 221.218 164.698 221.074 165.243C221.014 165.543 220.921 165.834 220.796 166.113Z" fill="#263238"/>
<path d="M224.294 166.649C223.928 165.521 223.63 164.371 223.403 163.207C223.108 162.057 222.874 160.892 222.704 159.718C223.065 160.847 223.363 161.996 223.595 163.159C223.89 164.309 224.124 165.474 224.294 166.649Z" fill="#263238"/>
<path d="M193.56 162.844L193.205 162.519L192.199 161.563C191.336 160.722 190.091 159.488 188.595 157.911C186.843 156.077 185.21 154.132 183.708 152.089C181.849 149.587 180.35 146.839 179.252 143.925C178.141 141.004 177.642 137.887 177.785 134.766C177.833 132.218 178.394 129.705 179.434 127.376C180.178 125.819 181.286 124.462 182.663 123.419C183.033 123.139 183.42 122.883 183.823 122.654L184.254 122.415C184.254 122.415 183.66 122.74 182.711 123.476C181.366 124.533 180.287 125.888 179.558 127.434C178.546 129.752 178.006 132.248 177.967 134.776C177.833 137.872 178.336 140.963 179.443 143.858C180.535 146.754 182.018 149.488 183.852 151.984C185.347 154.025 186.966 155.972 188.701 157.815C190.177 159.402 191.403 160.683 192.256 161.515L193.215 162.471C193.454 162.72 193.56 162.844 193.56 162.844Z" fill="#263238"/>
<path d="M150.903 145.072C150.037 144.374 149.278 143.553 148.651 142.634C147.903 141.816 147.277 140.896 146.792 139.9C147.657 140.596 148.416 141.414 149.044 142.328C149.796 143.146 150.422 144.071 150.903 145.072Z" fill="#FAFAFA"/>
<path d="M165.815 161.955C164.907 163.21 163.866 164.363 162.71 165.396C161.67 166.548 160.51 167.586 159.25 168.494C161.199 166.087 163.4 163.895 165.815 161.955Z" fill="#FAFAFA"/>
<path d="M180.248 186.189C180.114 186.189 179.587 184.755 178.609 183.101C177.632 181.447 176.616 180.233 176.693 180.166C177.681 180.852 178.479 181.776 179.012 182.853C179.696 183.845 180.121 184.992 180.248 186.189Z" fill="#FAFAFA"/>
<path d="M142.834 183.445C141.376 180.393 140.779 177.002 141.109 173.637C141.262 173.637 141.301 175.874 141.789 178.57C142.278 181.266 143.026 183.388 142.834 183.445Z" fill="#FAFAFA"/>
<path d="M162.701 194.114C161.507 191.549 161.249 188.647 161.972 185.912C162.116 185.912 161.905 187.776 162.116 190.032C162.327 192.288 162.844 194.067 162.701 194.114Z" fill="#FAFAFA"/>
<path d="M154.842 209.611C153.261 208.924 151.752 208.082 150.338 207.097C148.833 206.255 147.411 205.272 146.092 204.162C147.676 204.85 149.188 205.692 150.606 206.676C152.109 207.518 153.527 208.5 154.842 209.611Z" fill="#FAFAFA"/>
<path d="M185.74 205.032C185.807 205.166 183.583 206.265 181.005 207.9C178.427 209.535 176.463 211.055 176.367 210.94C177.641 209.574 179.115 208.407 180.737 207.479C182.27 206.414 183.957 205.589 185.74 205.032Z" fill="#FAFAFA"/>
<path d="M146.859 222.555C145.242 222.48 143.637 222.243 142.067 221.848C140.452 221.61 138.865 221.207 137.333 220.643C138.951 220.719 140.556 220.959 142.125 221.36C143.739 221.597 145.326 221.998 146.859 222.555Z" fill="#FAFAFA"/>
<path d="M167.598 219.19C165.77 217.421 164.529 215.136 164.042 212.641C164.177 212.641 164.771 214.152 165.758 215.949C166.745 217.746 167.713 219.094 167.598 219.19Z" fill="#FAFAFA"/>
<path d="M190.943 220.806C190.584 221.615 190.077 222.351 189.448 222.976C188.49 224.085 187.685 224.888 187.532 224.83C187.884 224.011 188.392 223.268 189.027 222.641C189.985 221.551 190.8 220.729 190.943 220.806Z" fill="#FAFAFA"/>
<path d="M148.268 155.091C148.344 155.205 147.491 155.913 146.351 156.659C145.703 157.187 144.958 157.584 144.156 157.825C144.08 157.71 144.942 157.003 146.073 156.247C146.72 155.719 147.466 155.326 148.268 155.091Z" fill="#FAFAFA"/>
<path d="M164.445 137.07C163.676 135.503 163.097 133.85 162.72 132.147C162.201 130.485 161.88 128.769 161.761 127.032C162.364 128.66 162.85 130.327 163.218 132.023C163.746 133.674 164.156 135.361 164.445 137.07Z" fill="#FAFAFA"/>
<path d="M179.98 153.475C179.913 153.609 178.514 153.074 176.722 152.739C174.929 152.404 173.425 152.376 173.425 152.223C175.69 151.829 178.021 152.274 179.98 153.475Z" fill="#FAFAFA"/>
<path d="M190.656 139.537C189.465 139.884 188.206 139.926 186.995 139.661C185.76 139.555 184.573 139.137 183.545 138.447C183.602 138.313 185.117 138.877 187.072 139.164C189.027 139.451 190.637 139.393 190.656 139.537Z" fill="#FAFAFA"/>
<path d="M201.572 155.081C201.392 153.322 201.482 151.546 201.84 149.814C202.045 148.055 202.523 146.339 203.258 144.728C203.393 144.728 202.789 147.041 202.3 149.89C201.811 152.739 201.725 155.091 201.572 155.081Z" fill="#FAFAFA"/>
<path d="M214.414 173.398C212.025 171.406 209.859 169.163 207.954 166.706C210.337 168.704 212.502 170.947 214.414 173.398Z" fill="#FAFAFA"/>
<path d="M225.09 171.974C224.099 174.135 222.809 176.146 221.256 177.949C221.682 176.831 222.263 175.779 222.981 174.822C223.547 173.779 224.256 172.82 225.09 171.974Z" fill="#FAFAFA"/>
<path d="M237.481 165.96C236.647 164.824 235.952 163.591 235.411 162.289C234.722 161.056 234.178 159.747 233.792 158.389C234.625 159.53 235.32 160.765 235.862 162.069C236.55 163.3 237.094 164.605 237.481 165.96Z" fill="#FAFAFA"/>
<path d="M254.349 159.001C251.392 158.816 248.466 158.297 245.627 157.452C247.112 157.467 248.591 157.646 250.036 157.987C251.507 158.161 252.954 158.501 254.349 159.001Z" fill="#FAFAFA"/>
<path d="M120.37 176.906C121.394 173.938 122.737 171.088 124.376 168.408C123.938 169.917 123.341 171.375 122.593 172.757C122.001 174.215 121.256 175.606 120.37 176.906Z" fill="#FAFAFA"/>
<path d="M129.311 161.171C128.24 160.335 127.275 159.372 126.436 158.303C125.469 157.343 124.617 156.275 123.897 155.119C124.971 155.952 125.937 156.915 126.772 157.987C127.744 158.943 128.596 160.012 129.311 161.171Z" fill="#FAFAFA"/>
<path d="M128.564 186.438C128.65 186.543 127.989 187.241 127.088 187.996C126.187 188.751 125.373 189.267 125.277 189.162C125.181 189.057 125.861 188.359 126.762 187.614C127.663 186.868 128.478 186.313 128.564 186.438Z" fill="#FAFAFA"/>
<path d="M131.583 144.451C131.698 144.537 131.295 145.215 130.691 145.971C130.088 146.726 129.503 147.261 129.398 147.175C129.292 147.089 129.695 146.41 130.298 145.655C130.902 144.9 131.525 144.365 131.583 144.451Z" fill="#FAFAFA"/>
<g opacity="0.3">
<path opacity="0.3" d="M181.676 148.791C185.73 161.496 188.854 174.832 192.908 187.537L191.95 161.228C188.008 157.536 184.555 153.357 181.676 148.791Z" fill="black"/>
</g>
<path d="M115.731 165.415C115.765 165.31 115.806 165.208 115.856 165.11L116.239 164.22C116.584 163.456 117.092 162.366 117.744 161.018C119.047 158.322 120.926 154.641 123.187 150.664C125.449 146.688 127.644 143.189 129.292 140.693C130.116 139.441 130.797 138.437 131.276 137.759L131.832 136.975C131.966 136.793 132.033 136.697 132.043 136.707L131.87 136.994L131.343 137.797L129.426 140.77C127.807 143.284 125.593 146.793 123.379 150.76C121.165 154.727 119.22 158.408 117.897 161.075L116.335 164.259C116.172 164.584 116.029 164.871 115.914 165.119C115.864 165.224 115.803 165.323 115.731 165.415Z" fill="#263238"/>
<path d="M122.201 153.246C121.859 153.415 121.507 153.562 121.146 153.685C120.314 154.048 119.518 154.49 118.77 155.005C118.026 155.525 117.336 156.118 116.709 156.773C116.22 157.28 115.952 157.615 115.933 157.595C115.914 157.576 115.933 157.5 116.086 157.337C116.245 157.107 116.418 156.887 116.604 156.678C117.207 155.982 117.896 155.365 118.655 154.842C119.414 154.317 120.234 153.887 121.098 153.561C121.358 153.46 121.624 153.374 121.894 153.303C121.993 153.27 122.096 153.251 122.201 153.246Z" fill="#263238"/>
<path d="M123.101 133.638C122.281 135.204 121.318 136.692 120.226 138.084C119.252 139.569 118.139 140.958 116.901 142.233C117.725 140.672 118.687 139.188 119.776 137.797C120.751 136.31 121.865 134.918 123.101 133.638Z" fill="#FAFAFA"/>
<path d="M130.021 118.094C130.496 118.178 130.985 118.112 131.421 117.907C131.857 117.701 132.218 117.366 132.455 116.947C132.992 116.144 133.241 115.188 133.71 114.346C135.138 111.851 138.378 110.761 139.681 108.199C139.863 107.836 139.969 107.339 139.681 107.09C139.394 106.842 138.962 107.014 138.627 107.176L130.097 111.44" fill="#FFBE9D"/>
<path d="M130.078 111.44C130.342 111.216 130.635 111.029 130.95 110.886C131.525 110.561 132.378 110.111 133.433 109.557L137.132 107.645L138.215 107.1C138.617 106.814 139.115 106.694 139.604 106.765C139.754 106.822 139.884 106.923 139.976 107.054C140.068 107.185 140.119 107.341 140.122 107.501C140.126 107.766 140.067 108.029 139.949 108.266C139.741 108.687 139.484 109.082 139.183 109.442C137.983 110.652 136.702 111.779 135.349 112.817C134.807 113.29 134.339 113.841 133.96 114.451C133.615 115.035 133.394 115.637 133.126 116.182C132.956 116.642 132.687 117.06 132.338 117.405C131.988 117.751 131.567 118.015 131.104 118.18C130.935 118.247 130.754 118.275 130.573 118.262C130.392 118.248 130.216 118.194 130.059 118.103C130.383 118.115 130.707 118.073 131.017 117.979C131.423 117.795 131.787 117.53 132.086 117.202C132.386 116.873 132.616 116.487 132.762 116.067C132.992 115.458 133.255 114.861 133.548 114.279C133.934 113.617 134.418 113.018 134.985 112.501C136.328 111.459 137.608 110.338 138.818 109.146C139.086 108.815 139.32 108.46 139.518 108.085C139.691 107.731 139.691 107.358 139.518 107.31C139.346 107.262 138.905 107.425 138.56 107.607L137.477 108.142L133.72 109.958C132.647 110.465 131.803 110.914 131.161 111.134C130.818 111.291 130.453 111.394 130.078 111.44Z" fill="#EB996E"/>
<path d="M397.575 374.051H336.911V382.369H397.575V374.051Z" fill="#263238"/>
<path d="M397.671 382.474H336.806V373.956H397.671V382.474ZM337.017 382.292H397.46V374.185H337.017V382.292Z" fill="#263238"/>
<path d="M342.537 379.596L351.267 422.568H383.574L392.017 382.369L342.537 379.596Z" fill="#263238"/>
<path d="M342.537 418.505L347.194 424.891H386.458L392.017 418.505H342.537Z" fill="#455A64"/>
<path d="M364.962 380.858C364.838 380.858 364.684 360.954 364.617 336.404C364.55 311.854 364.617 291.941 364.713 291.941C364.809 291.941 364.981 311.845 365.048 336.404C365.115 360.964 365.077 380.858 364.962 380.858Z" fill="#263238"/>
<path d="M378.475 331.041C378.435 331.202 378.381 331.359 378.312 331.51L377.766 332.791C377.651 333.077 377.517 333.383 377.373 333.747L376.97 334.884C376.827 335.286 376.664 335.716 376.501 336.175C376.338 336.634 376.213 337.131 376.05 337.657C375.33 340.088 374.763 342.563 374.354 345.066C373.878 348.135 373.558 351.227 373.396 354.329C373.174 359.974 373.334 365.627 373.875 371.25C374.076 373.411 374.268 375.16 374.412 376.365C374.479 376.929 374.527 377.388 374.565 377.751C374.578 377.913 374.578 378.076 374.565 378.239C374.503 378.089 374.464 377.931 374.45 377.77C374.392 377.407 374.316 376.948 374.22 376.384C374.019 375.189 373.779 373.44 373.549 371.279C372.941 365.635 372.768 359.952 373.032 354.281C373.184 351.163 373.504 348.054 373.99 344.97C374.42 342.453 375.022 339.968 375.792 337.532C375.955 337.016 376.098 336.519 376.271 336.06L376.769 334.77C376.932 334.368 377.076 333.995 377.21 333.642C377.344 333.288 377.517 333.001 377.641 332.686L378.264 331.433C378.32 331.295 378.391 331.164 378.475 331.041Z" fill="#263238"/>
<path d="M376.923 314.942C376.872 315.166 376.808 315.386 376.731 315.602C376.568 316.061 376.357 316.673 376.098 317.447C375.955 317.858 375.801 318.298 375.638 318.785L375.15 320.391C374.795 321.548 374.383 322.848 374.019 324.33C373.817 325.057 373.616 325.831 373.405 326.625C373.195 327.418 373.032 328.278 372.84 329.148C372.418 330.879 372.112 332.762 371.719 334.722C371.048 338.68 370.463 343.049 370.051 347.656C369.639 352.264 369.505 356.681 369.447 360.696C369.39 364.711 369.447 368.344 369.649 371.346C369.706 372.866 369.802 374.214 369.879 375.438C369.955 376.661 370.022 377.675 370.099 378.525C370.176 379.376 370.214 379.988 370.252 380.437C370.276 380.663 370.276 380.89 370.252 381.116C370.197 380.897 370.162 380.673 370.147 380.447L369.917 378.535C369.812 377.694 369.706 376.623 369.62 375.457C369.534 374.29 369.399 372.885 369.323 371.365C369.122 368.335 369.035 364.673 369.026 360.687C369.016 356.7 369.217 352.245 369.601 347.628C369.984 343.01 370.617 338.613 371.307 334.655C371.709 332.686 372.025 330.831 372.466 329.062C372.677 328.192 372.869 327.351 373.06 326.548C373.252 325.745 373.501 324.98 373.702 324.244C374.086 322.772 374.517 321.462 374.9 320.315L375.418 318.719C375.6 318.241 375.773 317.762 375.916 317.39L376.625 315.573C376.712 315.357 376.811 315.147 376.923 314.942Z" fill="#263238"/>
<path d="M361.119 384.376V384.147C361.119 383.965 361.119 383.745 361.062 383.458C361.014 382.827 360.956 381.948 360.88 380.829C360.736 378.506 360.535 375.199 360.276 371.126C359.749 362.943 358.982 351.633 357.602 339.196C356.902 332.982 356.078 327.074 355.235 321.72C354.775 319.053 354.372 316.51 353.903 314.139C353.433 311.768 353.021 309.57 352.59 307.562C352.159 305.554 351.746 303.738 351.392 302.161C351.037 300.583 350.702 299.216 350.433 298.098C350.165 296.979 349.954 296.186 349.811 295.536C349.743 295.258 349.696 295.039 349.657 294.866C349.619 294.694 349.609 294.637 349.657 294.637C349.688 294.708 349.714 294.782 349.734 294.857C349.734 295.029 349.849 295.239 349.926 295.517C350.098 296.128 350.338 296.979 350.635 298.06C350.932 299.14 351.315 300.516 351.689 302.103C352.063 303.69 352.532 305.488 352.954 307.505C353.376 309.522 353.912 311.702 354.315 314.072C354.717 316.443 355.216 318.986 355.685 321.663C356.557 327.017 357.391 332.925 358.091 339.148C359.471 351.576 360.19 362.924 360.64 371.116C360.86 375.208 361.014 378.525 361.11 380.82C361.11 381.938 361.186 382.827 361.205 383.458C361.205 383.736 361.205 383.965 361.205 384.147C361.192 384.228 361.163 384.306 361.119 384.376Z" fill="#263238"/>
<path d="M364.464 301.511C364.205 298.69 361.349 296.559 358.503 296.53C357.081 296.593 355.693 296.978 354.443 297.655C353.193 298.333 352.113 299.285 351.286 300.44C349.653 302.768 348.473 305.382 347.807 308.145C345.735 314.764 345.008 321.729 345.67 328.632C346.485 335.496 349.274 342.255 354.209 347.102C355.014 347.895 356.059 348.679 357.161 348.45C357.753 348.272 358.289 347.942 358.714 347.494C363.545 343.077 367.375 337.682 369.947 331.669C372.519 325.656 373.773 319.164 373.626 312.629C373.549 310.019 373.204 307.304 371.757 305.134C370.31 302.964 366.965 300.65 364.464 301.52" fill="#DFDFDF"/>
<path d="M343.265 278.92L339.268 286.148C339.173 286.31 339.048 286.502 338.856 286.521C338.665 286.54 338.492 286.339 338.377 286.167C334.85 280.769 331.336 275.371 327.835 269.972L330.269 268.596L343.265 278.92Z" fill="#DFDFDF"/>
<g opacity="0.2">
<path opacity="0.2" d="M343.265 278.92L339.268 286.148C339.173 286.31 339.048 286.502 338.856 286.521C338.665 286.54 338.492 286.339 338.377 286.167C334.85 280.769 331.336 275.371 327.835 269.972L330.269 268.596L343.265 278.92Z" fill="black"/>
</g>
<path d="M364.713 291.941L328.65 270.709C328.252 270.541 327.936 270.225 327.768 269.829C327.624 269.294 328.027 268.787 328.41 268.385C330.889 265.818 333.894 263.815 337.22 262.512C340.546 261.208 344.115 260.636 347.683 260.833C351.248 261.091 354.697 262.21 357.732 264.094C360.768 265.977 363.298 268.569 365.106 271.645C368.585 277.85 368.7 286.052 364.713 291.941Z" fill="#DFDFDF"/>
<path d="M333.844 263.94C333.997 263.896 334.155 263.874 334.314 263.873C334.63 263.873 335.09 263.806 335.675 263.816C337.354 263.793 339.032 263.925 340.687 264.208C346.18 265.136 351.293 267.607 355.426 271.333C359.56 275.058 362.542 279.883 364.023 285.24C364.471 286.85 364.773 288.498 364.924 290.163C364.942 290.513 364.942 290.864 364.924 291.215C364.9 291.495 364.804 291.765 364.646 291.998C364.757 291.399 364.777 290.787 364.703 290.182C364.495 288.539 364.155 286.915 363.688 285.326C361.875 279.27 358.186 273.942 353.15 270.107C348.114 266.272 341.99 264.126 335.656 263.978C334.496 263.95 333.844 263.978 333.844 263.94Z" fill="#263238"/>
<path d="M359.825 277.286C359.252 277.632 358.641 277.911 358.004 278.118C356.854 278.567 355.254 279.14 353.452 279.714C351.651 280.288 350.012 280.737 348.814 281.024C348.174 281.22 347.516 281.348 346.849 281.406C347.46 281.11 348.103 280.885 348.766 280.737L353.366 279.303L357.937 277.831C358.547 277.586 359.179 277.404 359.825 277.286Z" fill="#263238"/>
<path d="M354.152 262.066C354.471 263.38 354.613 264.73 354.573 266.082C354.677 267.43 354.603 268.786 354.353 270.116C354.173 268.782 354.103 267.436 354.142 266.091C354.039 264.751 354.042 263.406 354.152 262.066Z" fill="#263238"/>
<path d="M328.334 270.307C329.179 269.919 330.054 269.599 330.95 269.351C332.589 268.844 334.87 268.213 337.419 267.602C339.968 266.99 342.278 266.521 343.974 266.225C344.879 266.022 345.799 265.897 346.725 265.852C345.843 266.135 344.943 266.359 344.032 266.521C342.364 266.894 340.054 267.41 337.515 268.013C334.975 268.615 332.723 269.217 331.036 269.647C330.152 269.928 329.249 270.149 328.334 270.307Z" fill="#263238"/>
<path d="M349.494 295.392C346.399 293.041 343.112 292.582 339.23 292.735C335.337 292.985 331.524 293.957 327.989 295.603C321.903 298.26 316.191 302.17 312.559 307.715C308.927 313.26 307.652 320.602 310.374 326.634C310.588 327.266 311.028 327.797 311.61 328.125C312.284 328.324 313.006 328.269 313.642 327.973C320.561 325.726 327.529 323.451 333.883 319.923C340.236 316.395 346.035 311.501 349.446 305.096C350.322 303.582 350.88 301.907 351.085 300.172C351.177 299.308 351.083 298.435 350.808 297.611C350.534 296.786 350.086 296.03 349.494 295.392Z" fill="#DFDFDF"/>
<path d="M349.561 294.666C349.399 294.742 349.233 294.809 349.063 294.866L347.616 295.364L346.562 295.708L345.335 296.186C344.463 296.539 343.418 296.893 342.374 297.409L340.677 298.184C340.093 298.451 339.508 298.786 338.885 299.14C337.63 299.752 336.365 300.536 335.052 301.339C329.249 304.914 324.091 309.438 319.795 314.722C318.836 315.965 317.878 317.112 317.111 318.279C316.718 318.852 316.316 319.388 315.971 319.942C315.626 320.497 315.3 321.013 315.012 321.52C314.361 322.476 313.872 323.432 313.412 324.292C313.192 324.703 312.971 325.085 312.779 325.449L312.3 326.405C312.022 326.959 311.802 327.418 311.629 327.772C311.551 327.934 311.461 328.09 311.361 328.24C311.404 328.065 311.465 327.896 311.543 327.733C311.703 327.37 311.904 326.902 312.147 326.328C312.291 326.022 312.434 325.678 312.597 325.315C312.76 324.952 312.981 324.56 313.201 324.139C313.642 323.307 314.112 322.332 314.744 321.328L315.702 319.722C316.038 319.168 316.44 318.623 316.833 318.04C317.59 316.854 318.53 315.688 319.488 314.436C321.655 311.786 324.026 309.309 326.58 307.027C329.17 304.786 331.936 302.756 334.85 300.956C336.211 300.163 337.495 299.388 338.77 298.786C339.393 298.471 339.987 298.146 340.581 297.878L342.297 297.132C343.389 296.626 344.415 296.291 345.296 295.966C345.747 295.803 346.159 295.641 346.542 295.517L347.606 295.201L349.082 294.78C349.237 294.726 349.398 294.687 349.561 294.666Z" fill="#263238"/>
<path d="M325.324 307.725C322.856 308.667 320.338 309.474 317.782 310.143C315.266 310.958 312.707 311.631 310.115 312.16C312.583 311.214 315.101 310.404 317.658 309.732C320.175 308.926 322.734 308.255 325.324 307.725Z" fill="#263238"/>
<path d="M325.018 324.359C324.887 323.585 324.833 322.801 324.855 322.017C324.807 320.564 324.807 318.566 324.855 316.348C324.903 314.13 325.037 312.132 325.161 310.688C325.181 309.903 325.281 309.121 325.458 308.356C325.523 309.138 325.523 309.925 325.458 310.707C325.401 312.294 325.344 314.225 325.276 316.357C325.209 318.489 325.181 320.43 325.133 322.017C325.159 322.799 325.12 323.583 325.018 324.359Z" fill="#263238"/>
<path d="M339.278 317.112C339.163 317.112 338.78 313.049 338.435 308.021C338.09 302.992 337.898 298.901 338.013 298.891C338.128 298.882 338.512 302.954 338.866 307.992C339.221 313.03 339.403 317.103 339.278 317.112Z" fill="#263238"/>
<path d="M321.529 298.499C322.33 298.401 323.139 298.376 323.944 298.423C325.439 298.423 327.49 298.48 329.762 298.557C332.033 298.633 334.093 298.719 335.588 298.805C336.396 298.804 337.202 298.884 337.994 299.044C337.192 299.135 336.384 299.158 335.579 299.111C334.084 299.111 332.023 299.063 329.752 298.987C327.481 298.91 325.42 298.815 323.935 298.729C323.128 298.725 322.323 298.648 321.529 298.499Z" fill="#263238"/>
<path d="M355.781 348.048C355.745 347.892 355.729 347.731 355.733 347.57C355.733 347.207 355.733 346.748 355.666 346.184C355.608 344.98 355.599 343.24 355.666 341.089C355.733 338.938 355.848 336.376 356.107 333.546C356.366 330.716 356.797 327.609 357.381 324.368C357.966 321.128 358.694 318.078 359.432 315.325C360.17 312.571 360.956 310.134 361.684 308.097C362.413 306.061 363.026 304.436 363.505 303.317L364.052 302.036C364.106 301.881 364.18 301.733 364.272 301.597C364.24 301.757 364.192 301.914 364.128 302.065L363.659 303.375C363.227 304.493 362.652 306.138 361.972 308.155C361.291 310.172 360.554 312.648 359.816 315.392C359.078 318.135 358.397 321.185 357.803 324.407C357.209 327.628 356.845 330.726 356.509 333.546C356.174 336.366 356.049 338.919 355.973 341.06C355.896 343.202 355.781 345.008 355.781 346.184C355.781 346.748 355.781 347.207 355.781 347.57C355.797 347.729 355.797 347.889 355.781 348.048Z" fill="#263238"/>
<path d="M357.698 324.493C357.285 325.075 356.802 325.605 356.26 326.07C355.302 327.026 354.008 328.24 352.494 329.569C350.98 330.898 349.619 332.035 348.526 332.838C347.989 333.308 347.401 333.715 346.772 334.053C347.244 333.518 347.767 333.032 348.335 332.599L352.168 329.244L356.001 325.85C356.526 325.349 357.093 324.894 357.698 324.493Z" fill="#263238"/>
<path d="M369.083 333.67C368.513 333.007 368 332.297 367.55 331.548L363.985 326.366C362.605 324.407 361.349 322.648 360.343 321.223C359.804 320.537 359.317 319.812 358.886 319.053C359.508 319.668 360.079 320.333 360.592 321.042C361.55 322.313 362.93 324.091 364.339 326.118C365.748 328.145 366.956 330.009 367.799 331.385C368.291 332.11 368.72 332.874 369.083 333.67Z" fill="#263238"/>
<path d="M363.103 304.857C363.16 304.962 359.375 307.505 354.631 310.593C349.887 313.68 346.006 316.023 345.929 315.917C345.852 315.812 349.657 313.269 354.391 310.182C359.126 307.094 363.036 304.723 363.103 304.857Z" fill="#263238"/>
<path d="M373.789 316.329C369.871 312.908 366.144 309.276 362.624 305.449C364.633 307.108 366.553 308.873 368.374 310.736C370.283 312.497 372.09 314.364 373.789 316.329Z" fill="#263238"/>
<path d="M376.482 316.099L379.73 315.831C382.042 315.644 384.285 314.959 386.305 313.824C387.291 313.246 388.316 312.735 389.371 312.294C393.397 310.679 397.891 310.965 402.213 310.746C409.308 310.389 416.259 308.617 422.655 305.535C423.027 305.364 423.338 305.084 423.546 304.732C424.208 303.518 422.971 302.438 421.898 301.778C416.416 298.404 410.839 294.991 404.648 293.318C398.457 291.645 391.365 291.932 386.056 295.574C379.826 299.847 377.564 308.633 376.472 316.099" fill="#DFDFDF"/>
<path d="M423.614 304.331C423.423 304.263 423.24 304.177 423.067 304.073L421.524 303.27C420.183 302.572 418.256 301.53 415.774 300.402C412.941 299.016 409.991 297.884 406.957 297.017C403.247 295.948 399.361 295.624 395.524 296.061C391.683 296.49 388.055 298.043 385.097 300.526C382.787 302.682 380.942 305.284 379.673 308.174C378.788 310.109 378.001 312.087 377.315 314.101C377.066 314.78 376.874 315.325 376.731 315.736C376.675 315.932 376.598 316.121 376.501 316.3C376.535 316.099 376.583 315.901 376.644 315.707C376.779 315.286 376.942 314.751 377.152 314.044C377.776 312.002 378.525 310 379.395 308.05C380.647 305.109 382.501 302.462 384.838 300.277C387.841 297.719 391.543 296.118 395.467 295.679C399.357 295.215 403.302 295.54 407.063 296.635C410.115 297.521 413.077 298.693 415.908 300.134C418.333 301.339 420.24 302.409 421.553 303.165L423.058 304.034C423.252 304.116 423.438 304.215 423.614 304.331Z" fill="#263238"/>
<path d="M415.803 308.518C415.736 308.623 411.471 305.87 406.296 302.39C401.121 298.91 396.962 295.995 397.029 295.889C397.096 295.784 401.351 298.537 406.536 302.027C411.721 305.516 415.87 308.422 415.803 308.518Z" fill="#263238"/>
<path d="M411.26 295.67C410.259 296.009 409.212 296.196 408.155 296.224C407.11 296.381 406.047 296.381 405.002 296.224C406.034 296.038 407.078 295.933 408.126 295.909C409.163 295.745 410.211 295.665 411.26 295.67Z" fill="#263238"/>
<path d="M392.62 293.251C392.274 294.045 391.802 294.778 391.221 295.421C390.734 296.172 390.14 296.848 389.458 297.429C389.807 296.648 390.279 295.928 390.857 295.297C391.342 294.533 391.936 293.844 392.62 293.251Z" fill="#263238"/>
<path d="M396.435 311.023C395.715 310.723 395.028 310.352 394.384 309.914C393.157 309.168 391.509 308.078 389.717 306.797C387.925 305.516 386.382 304.293 385.251 303.404C384.619 302.953 384.029 302.448 383.487 301.893C384.165 302.252 384.807 302.674 385.404 303.155L389.947 306.444C391.71 307.725 393.339 308.853 394.528 309.656C395.199 310.059 395.837 310.516 396.435 311.023Z" fill="#263238"/>
<path d="M381.273 329.894C378.168 329.082 374.469 332.093 373.827 335.229C373.185 338.364 374.364 341.576 375.744 344.473C378.695 350.967 383.086 356.707 388.586 361.26C394.127 365.807 401.049 368.347 408.222 368.468C406.909 362.388 408.567 356.04 407.839 349.855C407.192 344.412 404.715 339.349 400.81 335.492C396.906 331.636 391.806 329.214 386.343 328.623C384.359 328.412 382.059 328.097 381.273 329.923" fill="#DFDFDF"/>
<path d="M408.222 368.44C408.067 368.388 407.919 368.317 407.782 368.229C407.366 368.012 406.975 367.752 406.612 367.455C405.312 366.324 404.27 364.929 403.555 363.363C403.057 362.407 402.501 361.365 401.964 360.218L400.287 356.528C399.691 355.172 399.006 353.856 398.236 352.589C397.393 351.247 396.451 349.969 395.419 348.765C393.291 346.27 391.01 344.119 389.027 342.073C387.241 340.276 385.615 338.329 384.168 336.251C383.194 334.841 382.393 333.32 381.781 331.72C381.59 331.146 381.446 330.707 381.369 330.391C381.315 330.237 381.283 330.076 381.273 329.913C381.273 329.913 381.484 330.544 381.944 331.663C382.606 333.22 383.435 334.701 384.417 336.079C385.89 338.121 387.527 340.04 389.314 341.815C391.298 343.852 393.598 346.003 395.745 348.507C396.802 349.728 397.763 351.029 398.62 352.398C399.386 353.686 400.071 355.021 400.671 356.394L402.309 360.094C402.827 361.241 403.364 362.293 403.843 363.258C404.511 364.806 405.489 366.202 406.718 367.359C407.628 368.105 408.242 368.401 408.222 368.44Z" fill="#263238"/>
<path d="M392.199 363.383C392.224 362.68 392.321 361.982 392.486 361.298C392.735 360.027 393.128 358.277 393.665 356.365C394.202 354.454 394.786 352.761 395.246 351.586C395.458 350.92 395.741 350.279 396.09 349.674C395.968 350.365 395.782 351.044 395.534 351.7C395.15 352.933 394.623 354.645 394.087 356.538C393.55 358.43 393.128 360.17 392.783 361.423C392.655 362.094 392.459 362.751 392.199 363.383Z" fill="#263238"/>
<path d="M407.628 348.459C406.887 348.354 406.156 348.184 405.443 347.953C404.111 347.609 402.262 347.131 400.201 346.672C398.141 346.213 396.272 345.85 394.911 345.591C394.169 345.497 393.437 345.334 392.726 345.104C393.474 345.096 394.222 345.156 394.959 345.286C396.339 345.467 398.236 345.783 400.297 346.242C402.357 346.7 404.207 347.198 405.53 347.656C406.258 347.843 406.962 348.113 407.628 348.459Z" fill="#263238"/>
<path d="M380.641 352.79C380.677 351.978 380.789 351.172 380.976 350.381C381.254 348.899 381.685 346.872 382.27 344.645C382.855 342.418 383.468 340.429 383.947 339.014C384.175 338.231 384.473 337.469 384.838 336.739C384.707 337.541 384.508 338.331 384.244 339.1C383.832 340.544 383.286 342.532 382.682 344.75C382.078 346.968 381.628 348.976 381.273 350.438C381.135 351.24 380.923 352.027 380.641 352.79Z" fill="#263238"/>
<path d="M400.508 335.448C400.508 335.563 396.617 335.257 391.882 334.751C387.148 334.244 383.257 333.737 383.257 333.622C383.257 333.508 387.148 333.814 391.882 334.32C396.617 334.827 400.517 335.334 400.508 335.448Z" fill="#263238"/>
<path d="M397.671 382.34C397.671 382.455 384.043 382.55 367.243 382.55C350.443 382.55 336.806 382.455 336.806 382.34C336.806 382.225 350.433 382.12 367.243 382.12C384.053 382.12 397.671 382.216 397.671 382.34Z" fill="#455A64"/>
<path d="M388.193 399.825C388.193 399.949 379.012 400.045 367.684 400.045C356.356 400.045 347.185 399.949 347.185 399.825C347.185 399.701 356.366 399.615 367.684 399.615C379.002 399.615 388.193 399.71 388.193 399.825Z" fill="#455A64"/>
<path d="M387.829 402.368C387.829 402.483 378.811 402.578 367.703 402.578C356.596 402.578 347.578 402.483 347.578 402.368C347.578 402.253 356.596 402.148 367.703 402.148C378.811 402.148 387.829 402.205 387.829 402.368Z" fill="#455A64"/>
<path d="M388.547 397.77C388.547 397.884 379.05 397.98 367.339 397.98C355.628 397.98 346.13 397.884 346.13 397.77C346.13 397.655 355.628 397.55 367.339 397.55C379.05 397.55 388.547 397.645 388.547 397.77Z" fill="#455A64"/>
<path d="M384.532 29.4063C384.532 29.5497 378.101 29.6262 370.156 29.588C362.212 29.5497 355.781 29.3968 355.781 29.2629C355.781 29.1291 362.212 29.0431 370.156 29.0813C378.101 29.1195 384.532 29.2725 384.532 29.4063Z" fill="#263238"/>
<path d="M370.262 43.6602C370.128 43.6602 369.955 37.255 369.869 29.3203C369.783 21.3856 369.869 14.9804 369.974 14.9804C370.08 14.9804 370.29 21.3856 370.367 29.3203C370.444 37.255 370.405 43.6602 370.262 43.6602Z" fill="#263238"/>
<path d="M399.635 243.367C396.627 242.115 393.684 240.711 390.819 239.161C387.864 237.756 384.985 236.199 382.193 234.496C382.251 234.381 386.199 236.264 391.01 238.711C395.821 241.159 399.703 243.252 399.635 243.367Z" fill="#263238"/>
<path d="M386.621 247.688C387.829 244.665 389.195 241.707 390.713 238.826C392.075 235.882 393.588 233.011 395.246 230.222C394.034 233.244 392.669 236.202 391.154 239.084C389.79 242.027 388.277 244.898 386.621 247.688Z" fill="#263238"/>
<path d="M55.6231 176.056C55.6231 176.189 51.0805 178.13 45.3782 180.396C39.676 182.662 34.9992 184.401 34.9513 184.277C34.9034 184.153 39.4843 182.203 45.1961 179.937C50.908 177.671 55.5656 175.931 55.6231 176.056Z" fill="#263238"/>
<path d="M45.0427 169.842C45.0427 169.842 44.8798 169.564 44.5348 169.125C44.0461 168.516 43.3741 168.08 42.618 167.882C42.0105 167.72 41.3698 167.73 40.7676 167.911C40.1654 168.091 39.6253 168.435 39.2077 168.904C38.79 169.373 38.5112 169.948 38.4024 170.566C38.2936 171.184 38.359 171.82 38.5914 172.403C38.8238 172.985 39.2139 173.492 39.7184 173.867C40.2228 174.241 40.8217 174.469 41.4481 174.523C42.0745 174.578 42.7038 174.458 43.2658 174.176C43.8278 173.895 44.3003 173.463 44.6306 172.93C45.0482 172.265 45.2367 171.483 45.1673 170.702C45.1673 170.148 45.0043 169.851 45.0427 169.832C45.2178 170.085 45.3266 170.377 45.3589 170.683C45.513 171.517 45.3635 172.378 44.9373 173.111C44.6221 173.668 44.1699 174.136 43.6233 174.471C43.0767 174.805 42.4537 174.995 41.813 175.023C41.0225 175.052 40.2424 174.837 39.5795 174.406C38.9167 173.975 38.4037 173.351 38.1108 172.618C37.8179 171.885 37.7595 171.079 37.9437 170.312C38.1278 169.544 38.5454 168.853 39.1392 168.331C39.6185 167.911 40.1974 167.619 40.8212 167.483C41.4449 167.348 42.093 167.373 42.7043 167.557C43.5197 167.792 44.2236 168.311 44.6881 169.02C44.8698 169.262 44.9914 169.544 45.0427 169.842Z" fill="#263238"/>
<path d="M52.2306 187.824C52.1827 187.824 52.0677 187.547 51.7227 187.107C51.2369 186.495 50.5637 186.059 49.806 185.864C49.2556 185.724 48.679 185.721 48.1273 185.856C47.5756 185.991 47.0659 186.26 46.6434 186.638C46.1304 187.1 45.7714 187.707 45.6146 188.379C45.4579 189.05 45.511 189.753 45.7667 190.393C46.0223 191.033 46.4684 191.58 47.0449 191.96C47.6214 192.34 48.3007 192.535 48.9913 192.518C49.5661 192.512 50.1304 192.364 50.6326 192.085C51.1349 191.806 51.559 191.406 51.8664 190.921C52.2796 190.255 52.4677 189.475 52.4031 188.694C52.4031 188.139 52.2306 187.843 52.2785 187.824C52.4525 188.074 52.5612 188.363 52.5948 188.665C52.7457 189.503 52.5929 190.367 52.1635 191.103C51.8506 191.66 51.4003 192.128 50.8552 192.463C50.3101 192.797 49.6883 192.987 49.0489 193.015C48.2584 193.044 47.4782 192.828 46.8154 192.398C46.1526 191.967 45.6395 191.342 45.3466 190.609C45.0538 189.876 44.9954 189.071 45.1795 188.304C45.3636 187.536 45.7812 186.844 46.375 186.323C46.8571 185.907 47.4355 185.617 48.058 185.481C48.6805 185.344 49.3274 185.364 49.9401 185.539C50.7536 185.783 51.4556 186.304 51.9239 187.011C52.0902 187.254 52.1954 187.532 52.2306 187.824Z" fill="#263238"/>
<path d="M109.205 76.6802C109.205 76.6802 109.31 76.9383 109.492 77.4354C109.675 77.9326 109.943 78.6878 110.288 79.6438C110.978 81.5558 111.994 84.4237 113.288 88.133L113.355 88.3051H113.163L100.858 86.6034H100.982C96.689 89.9675 91.6056 92.1821 86.214 93.0372C84.6955 93.2801 83.1612 93.4111 81.6234 93.4292C80.8376 93.4292 80.0421 93.3623 79.2371 93.3432L78.0392 93.2858C77.6367 93.2858 77.2342 93.1711 76.8316 93.1137C73.4641 92.7041 70.1891 91.7347 67.1426 90.2457C63.8908 88.6744 60.9215 86.578 58.3545 84.0413C54.9601 80.6606 52.3644 76.5671 50.7566 72.059C49.1489 67.551 48.5695 62.7419 49.0606 57.9822C49.5518 53.2225 51.1013 48.6321 53.596 44.5453C56.0908 40.4585 59.468 36.9784 63.4817 34.3584C66.3487 32.4786 69.5052 31.0802 72.8257 30.2189L74.0428 29.9035L74.6466 29.7505L75.2599 29.6549L77.7133 29.2916C78.5279 29.2151 79.3425 29.196 80.1571 29.1482C80.9611 29.0909 81.7682 29.0909 82.5722 29.1482C83.3676 29.2151 84.1727 29.1482 84.9489 29.3203L87.2778 29.6836C88.0444 29.8079 88.792 30.0469 89.5395 30.2285L90.6512 30.5153C91.0153 30.63 91.3699 30.7734 91.7245 30.8977C99.6027 33.6226 106.104 39.3058 109.847 46.7385C111.801 50.6117 112.948 54.8392 113.221 59.1664C113.584 64.5215 112.554 69.8795 110.23 74.7204C109.914 75.3609 109.665 75.8389 109.492 76.1448C109.32 76.4508 109.205 76.6228 109.205 76.6228C109.205 76.6228 109.272 76.4603 109.435 76.1353C109.598 75.8102 109.847 75.3227 110.135 74.6822C110.991 72.8102 111.665 70.8606 112.147 68.8602C112.926 65.698 113.191 62.4316 112.933 59.1855C112.531 52.9556 110.293 46.983 106.499 42.0181C102.705 37.0532 97.5252 33.3174 91.6095 31.2801C91.2549 31.1558 90.9099 31.022 90.5457 30.9073L89.4532 30.6205C88.7153 30.4484 87.9773 30.2094 87.2202 30.0947L84.9202 29.7409C84.1535 29.6071 83.3676 29.6358 82.5722 29.5784C81.7812 29.5163 80.9865 29.5163 80.1955 29.5784C79.4 29.5784 78.595 29.6453 77.79 29.7123L75.3749 30.0851L74.7712 30.1807L74.1674 30.3337L72.9695 30.6396C69.7016 31.4913 66.5966 32.8736 63.7788 34.7312C59.0643 37.7924 55.2507 42.0492 52.7288 47.0651C50.207 52.081 49.0676 57.6756 49.4274 63.2755C49.7873 68.8754 51.6335 74.2791 54.7768 78.9328C57.9201 83.5864 62.2474 87.3225 67.3151 89.7582C70.3258 91.2435 73.5656 92.213 76.8987 92.6262C77.2917 92.6835 77.6846 92.76 78.0871 92.7982L79.2755 92.8556C80.0709 92.8556 80.8472 92.9703 81.6234 92.9512C83.1417 92.9398 84.6569 92.8152 86.1565 92.5784C91.4921 91.7594 96.5294 89.5942 100.791 86.2879H100.848H100.858L113.182 88.047L113.058 88.1904C111.802 84.4907 110.834 81.6131 110.183 79.5864L109.445 77.3781C109.272 76.9383 109.205 76.6802 109.205 76.6802Z" fill="#DFDFDF"/>
<path d="M82.8022 53.832C83.0199 53.9375 83.2036 54.1019 83.3324 54.3063C83.4611 54.5108 83.5298 54.7472 83.5305 54.9887V61.3556C83.529 61.5524 83.482 61.7461 83.3932 61.9218C83.3045 62.0975 83.1764 62.2504 83.0188 62.3688C82.8613 62.4871 82.6785 62.5676 82.4847 62.6042C82.2909 62.6407 82.0913 62.6322 81.9013 62.5793C81.3751 62.4451 80.8272 62.4183 80.2903 62.5004C79.7535 62.5826 79.2388 62.772 78.7771 63.0573C78.3541 63.3028 77.985 63.6308 77.6919 64.0217C77.3988 64.4126 77.1877 64.8584 77.0712 65.3326C76.9906 65.8162 77.0067 66.311 77.1185 66.7884C77.2304 67.2659 77.4358 67.7166 77.7229 68.1145C78.0258 68.5632 78.4145 68.9479 78.8668 69.2465C79.319 69.5451 79.8259 69.7517 80.3584 69.8544C81.4398 69.9624 82.5259 69.7004 83.4384 69.1115C84.3509 68.5226 85.0356 67.6418 85.3802 66.6136C85.4972 66.3082 85.7269 66.059 86.0222 65.917C86.3175 65.7751 86.6561 65.7512 86.9685 65.8501C87.2809 65.9491 87.5435 66.1635 87.7026 66.4495C87.8616 66.7354 87.9051 67.0711 87.824 67.3879C87.2886 68.996 86.2135 70.3706 84.7801 71.2797C83.3467 72.1888 81.6428 72.5768 79.9559 72.3782C79.0805 72.2235 78.2452 71.8949 77.4994 71.4121C76.7537 70.9293 76.1127 70.3021 75.6145 69.5676C75.1255 68.8825 74.7802 68.1061 74.599 67.2848C74.4179 66.4635 74.4047 65.6142 74.5603 64.7876C74.7479 63.9727 75.0995 63.2042 75.5937 62.5288C76.0879 61.8534 76.7144 61.2852 77.4354 60.8585C78.4996 60.2204 79.7205 59.8895 80.9621 59.9025V54.9887C80.9621 54.6506 81.0961 54.3262 81.3349 54.0863C81.5736 53.8463 81.8978 53.7102 82.2367 53.7077C82.4321 53.7066 82.6253 53.7491 82.8022 53.832Z" fill="#8893FF"/>
<path d="M81.039 51.1552C81.0333 50.9469 81.0898 50.7416 81.2013 50.5654C81.3128 50.3892 81.4742 50.25 81.6652 50.1655C81.8561 50.081 82.0679 50.0549 82.2737 50.0907C82.4795 50.1265 82.67 50.2224 82.821 50.3663C82.972 50.5103 83.0768 50.6957 83.122 50.8991C83.1672 51.1026 83.1508 51.3148 83.0749 51.5089C82.9989 51.7031 82.8669 51.8703 82.6955 51.9894C82.5242 52.1086 82.3212 52.1742 82.1123 52.1781C81.8351 52.1808 81.5677 52.0754 81.3672 51.8843C81.1667 51.6932 81.0489 51.4316 81.039 51.1552Z" fill="#8893FF"/>
</svg>
